<mxfile host="app.diagrams.net" agent="Mozilla/5.0 (Windows NT 10.0; Win64; x64) AppleWebKit/537.36 (KHTML, like Gecko) Chrome/133.0.0.0 Safari/537.36" version="26.1.0">
  <diagram name="Page-1" id="8JpUvq2DKyB-AGmvPFqf">
    <mxGraphModel dx="1411" dy="863" grid="1" gridSize="10" guides="1" tooltips="1" connect="1" arrows="1" fold="1" page="1" pageScale="1" pageWidth="850" pageHeight="1100" math="0" shadow="0">
      <root>
        <mxCell id="0" />
        <mxCell id="1" parent="0" />
        <mxCell id="1VdBIYyeLSir0RV5_wH--2" style="edgeStyle=orthogonalEdgeStyle;rounded=0;orthogonalLoop=1;jettySize=auto;html=1;exitX=1;exitY=0.5;exitDx=0;exitDy=0;entryX=0;entryY=0.5;entryDx=0;entryDy=0;" edge="1" parent="1" source="1VdBIYyeLSir0RV5_wH--1" target="1VdBIYyeLSir0RV5_wH--3">
          <mxGeometry relative="1" as="geometry">
            <mxPoint x="290" y="335" as="targetPoint" />
          </mxGeometry>
        </mxCell>
        <mxCell id="1VdBIYyeLSir0RV5_wH--1" value="" style="shape=image;verticalLabelPosition=bottom;labelBackgroundColor=default;verticalAlign=top;aspect=fixed;imageAspect=0;image=data:image/png,iVBORw0KGgoAAAANSUhEUgAAAfQAAAH0CAYAAADL1t+KAAAACXBIWXMAAA7EAAAOxAGVKw4bAAAEumlUWHRYTUw6Y29tLmFkb2JlLnhtcAAAAAAAPD94cGFja2V0IGJlZ2luPSfvu78nIGlkPSdXNU0wTXBDZWhpSHpyZVN6TlRjemtjOWQnPz4KPHg6eG1wbWV0YSB4bWxuczp4PSdhZG9iZTpuczptZXRhLyc+CjxyZGY6UkRGIHhtbG5zOnJkZj0naHR0cDovL3d3dy53My5vcmcvMTk5OS8wMi8yMi1yZGYtc3ludGF4LW5zIyc+CgogPHJkZjpEZXNjcmlwdGlvbiByZGY6YWJvdXQ9JycKICB4bWxuczpBdHRyaWI9J2h0dHA6Ly9ucy5hdHRyaWJ1dGlvbi5jb20vYWRzLzEuMC8nPgogIDxBdHRyaWI6QWRzPgogICA8cmRmOlNlcT4KICAgIDxyZGY6bGkgcmRmOnBhcnNlVHlwZT0nUmVzb3VyY2UnPgogICAgIDxBdHRyaWI6Q3JlYXRlZD4yMDI1LTAzLTA2PC9BdHRyaWI6Q3JlYXRlZD4KICAgICA8QXR0cmliOkV4dElkPjU0ZTI4YThjLTdjMmYtNDNkZC1hNWRkLTA5Zjk3ZDcwMjAwZDwvQXR0cmliOkV4dElkPgogICAgIDxBdHRyaWI6RmJJZD41MjUyNjU5MTQxNzk1ODA8L0F0dHJpYjpGYklkPgogICAgIDxBdHRyaWI6VG91Y2hUeXBlPjI8L0F0dHJpYjpUb3VjaFR5cGU+CiAgICA8L3JkZjpsaT4KICAgPC9yZGY6U2VxPgogIDwvQXR0cmliOkFkcz4KIDwvcmRmOkRlc2NyaXB0aW9uPgoKIDxyZGY6RGVzY3JpcHRpb24gcmRmOmFib3V0PScnCiAgeG1sbnM6ZGM9J2h0dHA6Ly9wdXJsLm9yZy9kYy9lbGVtZW50cy8xLjEvJz4KICA8ZGM6dGl0bGU+CiAgIDxyZGY6QWx0PgogICAgPHJkZjpsaSB4bWw6bGFuZz0neC1kZWZhdWx0Jz5VbnRpdGxlZCBkZXNpZ24gLSAxPC9yZGY6bGk+CiAgIDwvcmRmOkFsdD4KICA8L2RjOnRpdGxlPgogPC9yZGY6RGVzY3JpcHRpb24+CgogPHJkZjpEZXNjcmlwdGlvbiByZGY6YWJvdXQ9JycKICB4bWxuczpwZGY9J2h0dHA6Ly9ucy5hZG9iZS5jb20vcGRmLzEuMy8nPgogIDxwZGY6QXV0aG9yPkFuc29yIFBvaGFuPC9wZGY6QXV0aG9yPgogPC9yZGY6RGVzY3JpcHRpb24+CgogPHJkZjpEZXNjcmlwdGlvbiByZGY6YWJvdXQ9JycKICB4bWxuczp4bXA9J2h0dHA6Ly9ucy5hZG9iZS5jb20veGFwLzEuMC8nPgogIDx4bXA6Q3JlYXRvclRvb2w+Q2FudmEgKFJlbmRlcmVyKSBkb2M9REFHZzhQb3dHZ3cgdXNlcj1VQUZ2VkZDaFg3dyBicmFuZD1CQUZOQl9VMlJHSSB0ZW1wbGF0ZT08L3htcDpDcmVhdG9yVG9vbD4KIDwvcmRmOkRlc2NyaXB0aW9uPgo8L3JkZjpSREY+CjwveDp4bXBtZXRhPgo8P3hwYWNrZXQgZW5kPSdyJz8+7Rr3RQAAnvtJREFUeJzs3XmcpXld2PvP99nOWnvvPd09+4CzCAwzMMPimAkgIiAISJSoMVw0VyORK4mAkQR8xZe+4vVeiIRrgvoiXqMBk+uSaFSQBEFgRBgms8DsS09Nd+119vMs3/vHc55Tp6qrurq6q+ss9X2/prtr6my/ZznP9/lt359gjDHGmKEn/S6AMcYYYy6dBXRjjDFmBFhAN8YYY0aABXRjjDFmBFhAN8YYY0aABXRjjDFmBFhAN8YYY0aABXRjjDFmBFhAN8YYY0aABXRjjDFmBFhAN8YYY0aABXRjjDFmBFhAN8YYY0aABXRjjDFmBFhAN8YYY0aABXRjjDFmBFhAN8YYY0aABXRjjDFmBFhAN8YYY0aABXRjjDFmBFhAN8YYY0aABXRjjDFmBFhAN8YYY0aABXRjjDFmBFhAN8YYY0aABXRjjDFmBFhAN8YYY0aABXRjjDFmBFhAN8YYY0aABXRjjDFmBFhAN8YYY0aABXRjjDFmBFhAN8YYY0aABXRjjDFmBFhAN8YYY0aABXRjjDFmBFhAN8YYY0aABXRjjDFmBFhAN8YYY0aABXRjjDFmBFhAN8YYY0aABXRjjDFmBFhAN8YYY0aABXRjjDFmBFhAN8YYY0aABXRjjDFmBFhAN8YYY0aABXRjjDFmBFhAN8YYY0aABXRj9oiqAiAi3Z9ZWRE89UnUQ/AAH8RD1AMngGQK5QDIQVU9IDADegiYRGQCdAwYA8ogeaAIeCAFUIfNv+MKNFFC0BZCDaQGVFGqoCsIKyjzKPM4nX/FmcNhgUTrKDEQIdJGNMb1Q9QNKRSSc7ax8//GmMvLvmXGXAbnBO96XYhaJdBJHKZBpkAnQaaBQyiHEA4Dh4GDwDQwiWpRQToBUdbeHzoxUns+duP3eavvt57vd6ra+TTJ/l/Tz1dA2sAqqgvAAiJngDMgZ1A9izCPsoLoUoIsOo6zTJBbwcvH6wpmAd6YXWffKmN2gapmES+1sjyOq6eAa4CrgJOgx1CmEJlGdQphAhgD8dj6uzho39HNbgay3ydAHVgBloFFYAk4i/I0wuPAY7jyOH/6l2d505uSzg2PiMhW72uMuUCDdrEwZih0auBr35/awnHUeTHwEuBFwHVAXiEv4AM5wOs8e79877IgHQNtRUNBmkAbdBblXuDLiNzDcwsPcu21UfZCC/DG7Nx+ubAYs2O9fcCsrgpOEoAWECmQJEcQXgq8HJWXAqeQ7vdJUZzO/9l3bD3d8G/20wro3yD8FZp8EfG+CVrHcRr4uSZ+Psmebs31xmzOvhnGbNAN5MvLXiJ60HH0SuAK4PkIt4DcjOpVCC6IqGpvkLHv1M71BvlsNN1Z4H5E7kXkf6H6JMJT4DxLaaKRvcaCuzFr7NtgDD194KtP52IpXOeKezvwAlW9TkROKRwXKLP2nbHvzuXV2+TeBmZV9WlBHke4D/gK6H2Up5fBmuiNAbsomX2spx9cqC2/ENU3gr4a5CRQAgqk/d72PRkM2cC7JlBX1QUR+SIq/x+R/iVTU7XseVZzN/uRnfVmX+g2o1erDkmYx2UC0WtReSPK9wJX9cwFs1r44Os20yuKIBXgTyH5z6h8CXFWcN0ahbEIrGne7A92lpuRp6pQq4yh0fXA81FuR/Q7QJ4HeIpKZzybfR+G0/qBdqqziHwB+ALovTj6TYozZ7B+dzPi7Mw2I0lVYXXVQ6LrceRulJcBzwOuJm1Ot1r46MoCfBs4DXwT5auI8xkivUempmo2992MIruYmZHR7ROfnc0xFrwW5EdAXgRMYEF8v1IAVW2JSAV4DOHTeM7vkJuYxfrbzQixM9kMNVWFZtMjao4hySlU3gr8CHCk8xQL4iajPSl5G8AfgfymovfGsS57E9PNzmP9LKMxF83OXDOUVBUayyVifT4qL4bktcArOguWCNYnbramndwBCkQK96L630D+SkW/4bgyR2HKau5m6NgZa4ZGt0m9Pj+Guq9B+S7gNpTrEYLO0+ycNjuR9aMnKKcR7gU+C/JHlCcfw5rkzRCxM9UMBVUVKkszoO8A/gEiJ0iXDXWx89jsDu38aQDzwH9F+DVa+hDT02qD6MygswuhGUjpVLMzgnpFxD+cJNHfd0T+IXC88xTBzl9zeaQD6VAVpInqH6DJv8H1HgRZlfJkvN0bGNMPdkE0A2UtAcziAdKVy16LyvchHMIGuJm91QnsqKi2EPkL4L+AfJ7y5KNYc7wZMHY2moHQ7R9fXTiA474ekjeA3AocBRzsXDX9lTW3r4J+A5XP4vGfKEw9BCQW2M0gsLPQDAStLudBv181+ceCXIfq2IY0rMYMgk42OloIs6r6+5Lwr5mYPmt97Kbf7GJp+iLtI19xSZJJRO5C9efSpUmtWd0MhbV0s8oqJL8K8klgFglaMjbWz7KZfcoummZPrfWRL50EvRvkB1BeqaK+5VM3QyirsSeIPgz8v8CfUo6/Dgcja4o3e8nONrMn1veRy1tB3gx6K8hE5yl2LpphltXYQ+Ah0D9LVD/pjLXuh2PWx272hJ1lZk9oddFHeS2q7wO5CaHUecjOQTNKeheGeQbhtxD3/5LSRLWfhTL7g11MzWWhqrCwIOTcoiLXCMkHgdcDXucpdu6ZUZYt5aqIPILoB1DnM7jOKoXx2Grs5nKws8rsOlWF+opPktwKvE1VfwiYFgTEzjmzr/TW2P8Mkd9Cnb+gPL5qQd3sNjujzK7p9pM3Vk8Qxz8GvAG4gbRWbuea2c/StLLKc8Bf4ui/p7T4eZHrLOuc2TV2kTW7Iq2Vz+VR720oHwBOArnOw3aeGZNSIFbVORF+F+GXKU2fsTnsZjfYhdZcElWFymKA41yL6odAv0eVQCwpjDFbSVPKqqqI3I/yzxD9AuXpigV2cynsgmsuStq8XnGphteq8maBn0DkKLZoijEXqtu/rqq/J47zCZR7KE82rH/dXAw7a8yOqapQXQoU3iLKOxHuBHzsfDLmYiiQAI+q6u+C8zEZm7RUsmbH7AJsdkRVhaWlg3j6EUReA4xjtXJjdoOqalOEh0HeQ3nqMwBWWzcXys4Uc0G0tiQkWga+R+GXBY5hgdyY3aaduetNlI+i/Bsc51nKE5ZtzmzLzhBzXj25118E/G/A27FauTGX01oaWeXzwEfw8n9OoWB96+a87OwwW1JVWF4u48Y/jDg/CtwCuNh5Y8xeyAL7LPBphI9SmnoUUAvsZjN2VphNqarElcVTDvILIrweyNaDtHPGmL2lpIu+fB3k/bi5z0mxaAlpzDns4mzWSdcpX82jye2gHwFuxprX943usGrtGWCtmk2c7j4r+3FduoFOrVF6fj7n9+ZiZbnhVxB+HuQ/sFhZ4eRJq62bLjsTDNCTtrW2fCWq7wDeA9jSpqNEFUS6QVujiLDdImo0iZpNonaTqN0iDkOS7E8UkcQxcRiimqBJAgpJHAEgrtsdhe24bs8fD8fzENdDfA/X83A8H8/3cf0ANwhwggAvCHD9AMd1zwn82fgNC1hdWUIaRPg0yq8i+lXKM23bRwbsQm06dHXeBe5EnPeCvhokwM6PoaW9NWzHQZOE5soy1TOzVJ6bpTY/R2tlhVa9SthoEjcbRK0WcbtF3G6TxBFJFKNJnL6X6rr3VNVuTVxII42IdP8fcXBcJw3oroPr+bi+j9MJ6E6QBnUvyOHl8viFAkGpTDA2Rn58gsLkFLmJCfJj4/j5AjhO+sFJcs627sNgpkAMPAh8FEf/g5Rmmn0ukxkA++6bYDantaUfINZfRDiGDXwbWqrZrCchAVafeYrTX72HMw/cR31hnjhso3FCEkdoHK8LzHtc0p5me0n/OC7iOojjpEHadXH9gFy5THHmAONHjzNx4hRjx09QnjmAl8+nb5Ak3W3O3m+fSIAKyu8yNvXTItLod4FMf+2bM9+sp6rQqjjEyQxJ/D6Qd2N95UMpqzknYUgYtmksLnL6a/fwzJe/SOXMLCCjEeRUSTrB28vlKM4cYPLEKaauvpapU1dRmjmAVyjgug6O5+O4HjDyAb6TZU6/CvIuHOcBihPhiG+z2YId9X1Ka0semtyGyvuA12CpW4dLZ6BaHEXUF+ZYnX2WpSce4+yD97P81BMkYRtx3H6X8rLorY0DJJ1m+KBYonTwEBPHTzB2/DjlA4coTM9QnJ4hPzaOuC5seO2IUAWVtAn+l3G8T1Ecsznr+5Ad8X2m2w9aW/pBEv0ZRG7CmtgH3sY+8ebKMmcfvJ+5hx5g5fTTVJ+bpV2vjWKw2rFsX/n5PPnJKQrTM5QPHmLi5JUcuOZ6xo4ew/G8df3xI7Dfeues/y4uH6YwtTwC22V2wI72PtJJFFPA1Q8ivEthMptw1N+Sma1kA9IQIVFl6bFHeOx/fIa5hx6g3aiTtNvrg705h6riOE53QF5happjL7iVEy+5k/KRo0jP/huBAKhAG/SvwPkxypOP2SIv+8fQn73mwmhjRQjDKxD5BVTejuB3HrJzYAClg9sSolabVq3K7L1/y+P/4zOsnn4G6Yz43tj0bLbX3Wedm6Tpq67hyrvu5si33UxQKOL6fjpSf7j3q5KOOvw68G7C+K+ZPhgP+TaZC2BHeJ/Q1cWXAu9Huv3lYMd/oGhWE49CKs/NsvTk45y5/z7O3H8frcpqOlfb7LokjinOHOD4i27j8E23MHP1dQSl0rD3t6eDLISHSJJfxCt8Skolm9o24ob2bDXbU1X4xjccrj7xZlX9gCC3IDaSfZD0NpeHrSZnH3qA5+79GktPPkb1uVmidnuYg8pQUYX85CTTV1/LqTteztFbXoDTGVg4pMcgO7kWUP1/EH6F8vTSkG6LuQB2ZEeUqkK1moPwx4GfBT2cJeXsc9EG1qZ90Vna0x7rLojZzxtfu9nrNr6m83McRTz1pS/w2F/+OdWzzxG1WmiSDGsQGXoKBIUix150Gze+6a0UxtOEiUN8PFShgfJ7CfIBd2xydoi3xZyHHdURpKqwOj+GOD+B8D5UxrB02l3dwK1KHKUJVpIkIdEk/TkMiZoNwlaLqNUkbDaJWq1OKtSQpN1OX58k3ZSoruchnt/dw24uj0hnIFYQ4LgeXi6X/ux5eH6AiHD2gft46E//iMbSEk6WDc30XXaOTF95NS/84XcyefwKRJyhDuqdu8w/AN4j4zNP9LtAZvcN7dlpNpfWzBeOo867EX4CKHQe2vfHWlXRJKG+tEh17gyNhQVqC/PU5+eoL87TXFmmXasRNZvrMqlt3HOyza7Unr83I7KWDS2JY0TEBrgNKFUlPznJzW/5Aa540YtxOzdiQypb4OVzCO+nXP0KnEyGeHvMBnYkR0gazJdvhORDIK8HPOwYd2tbtfk5Hv+rzzH/8DepnT1Dq1ohCcNRGNVsLiNVJSiVed7r3sg133E3bjD0QV1B/xfwIcreH4hMRP0ulNkdQ3tWmnPpyuKNiH5U4ZUi4mDHtxvMW7UKX/74R5l/5FskUTTMF2TTB6qKXyxyy9t+kCvveMVavvnh1AnqPIPoe3H4fSnO2PrqI8A67YZcOl/5YdHq0vNx9NcRucuC+XpxHPO13/4tzj74ANpp4jZmJ0SEsF7nvk/9DotPPg5sMYhyOGQzXU6g8m+J+V6trwRDvD2mwwL6EFNVWFryqE59J6q/A7y085BFrB6Pfe4veOaeLyGO7RZz8USEdq3GV3/r39FYWe53cS5VFtSnQH6TOH4X1eUJC+rDzQL6kFJVqFR8fH0zyMeAWzrzoSxqdagqq7PP8vCf/0kflgc1o0hEWH32GR74w/+8lpZ3uAlQBj4M+tPUl6ctqA8vC+jDqtFwkfh7QH4J5Dps6dNNPfXlL9BaWbZmdrOrnv3be1h47JHzzGUYKgJMAP+HJsl74vpKqd8FMhfHAvoQ0oUFl3bjVWjyMdBTWDA/h6pSX1pk4dGHSWIb72N2j4gQNuqc/upXhrkffSMBSoK8z1V9f1xdKo/Qtu0bFtCHjNbnAzzeiiufROSwNbNvrXJmluqZ5/pdDDOCNElYfupJGstL/S7KbkqvJao/K6ofprp8zIL6cLGAPkS0Ph+QOD+II/8aOIAF8i1pklCbO0trdaXfRTEjqr44T31hfpRq6dAJ6oL+OOjPUbOgPkwsoA8JXVhwieTNKB8GjmLB/LySOKY2P0ccWc4Mc3m0KxVa1Uq/i3E5CEgO9B+g+s+orYz1u0DmwlhAH3CqitbrLh6vQuQjwDHsuG0pnZevJHFEY3HBBsOZyyaOQuLmyK5I2gnq/CQkP6uV5ZLV1Aef1+8CmK11p6ZJ/D0IH8Oa2c9LVYlaLVZnT7P4xOMsP/Wk7SxzWY14kEu/Pqo/iyYOjZVfUdV5u0keXBbQB1Q3aYyvbwL5pXQAnMWnjbILapIknLn/GzzzN19m8fFHqZ090134xFy6rQKXiIAqCZCokiRKooom6fKxiQKSNimJgCMOriM4IoikJ7T2vtcQcVwPN5frdzEuN+n895MaJZHUFv9PVbU11QeUBfSB9YjgT70SnA8BJ/tdmkGUroQmrMye5hv/8ZMsPv4YUavZTfax1xedLOgNc5DKbAzgAuna7UlCO0pohhHNMKIVxoRxQhQnaSDPXs+GH2TtHwEcx8F3hWLgc3CsgOc6Q7fiXFAsEpTK7IP77HRKm/BTmrAolaWPAa1+F8qcywL6oKrM3IDwK4AljdlgbcGVKo//z8/y4B//F+Iwgj4GhLTvHmqtkJV6i1zgMlXM4zrDEdR7A3iSjUNQaEcJjXZIrRXSCCPaURq4Ye2E3Gz7NgZnTXT9MrFJTDuCajPdXzccnR66ZH75qWmKk1Okdy1DVvidE2AM5MMIz2pj6felMGUjTgeMBfQBo6qwunQj6K+D3IIF83WyWvniE4/xzf/2h8ze+zWSuLN6Wp8jQq0d8vRChXYnkU2lEXJkokghSL9mgxbYu90VqoRxQhjFtKKEZhTRbEc0w5goTrrhKit/789b2fh497WbvK4ZxrSimLzvXvI27RkRJq44SWFmpt8l2UsiQhH4ODGuVs98mtKh9qCd1/uZBfQBkq5nvnCjinxURO7o/Nq+LR1ZADr9tb/hgT/4NCvPPI0M0Frm7SghTJJueSqNFmEcc2SixEQh6GuTcm8NXDpN5412RK0Vpk3nURrQoyRBkXW1740l3rgNm/WvZ0302VNV07+ydTt7bwoCz8F3h2vihuO6uIHP0hOPk5uYpDAxgZfLpw9u2NcjJk0Tq/pL4CWw+ClVjUdwO4eSHYUB0Qnmx0E+osobbQnU9bKg8cw9X+Lrv/fbNAcsP7uqUm22eWqhQhivBXVVxXWEQ2NFDk0Uu8/fq7L3BltFqTVDFmstaq2QOMma1re+0ei9CcneSwFHwHcdAs8l57vkXA/fc/AcB8cR3M6It25AT9LPjxMlihNacUKrHYHAwbECeX8wWzG2ooAXBIjjIp6Ln8tTOniIg9c9j8Pf/kKmTl7ZHTAIw7NdO5AADwE/Tnnq8yO4fUPJjsIASJvZ58cQ958j/BPSlhM7Nh3Z3PK5bz3I337yE1TPnhm4C2QW7JZqTWaXa+cEdRGYLOY5OlHE99Km5cu9DappAG2FEYv1Fiv1FlGcdD97sxaD3t9ltWhHIPBcCoFHMfApBh6B5+B0gvZuzdwatGN6IXRDwFZVkiShND3DyTtewYmX3kl55iBeZzT8MG7jFjpLzclfAz9EeeqxEdq2oWVHoM/Smnk1B+2fBvnnQAE7LuuoKrX5Oe75xMeZf+SbA3tRzC7u1WbIcys16q0wa3vuPlbO+xwaK1IuBBfUF30pZWmGMc8uVak0293fbzWADUlr1YHr4HsugeeQ99MgnvM8PCetbm/avD6gx6NfspsiVSUolTj2ots4+ZI7mbnmOlzPH6X91Wmy0T9Bk3/E+IGnRmjbhpLt/T7Te+91uPrEPwb9EMgYdkzWyWrn9/zGx3n6y1/sd3G21R2BH8bMVeos1VrrmrRVFd91mC7lOdCZrgW7HxQTVeYrDWaXqucMFuwGZRF816EUeBRyPnnP7QZ011l7zfma43dCun9tQdf9c/73GqLAoUlC8cBBrnrld3LNXX+XoJiuTjpM23Ae2bCI/4Tj/JSUJuf6XaD9bCTOqGGmlcW3AB9FOcxaS6fpUOCpL3+Re/79x4ZmnnIa55RYlYVKgzMr9XOCugiUAp/jU2XywdrY1N3avqTz2aeXquf0gXuuw3ghx1QxIOd7OCI4zvqBcFtvW++AL8ja3LXzmXGS/kkSJU4S4k4f/VrSmc5re9+z85cjIE5aFk8E10mT0Hiug5uVUdJZ/pvdSwz6ueH4Ptfe/V182+vfhOuPXE29CfoxIufnZWqq3u8C7Vc2yr1PtFEVwvZLQD8AHF67OpqMqtKqVXngDz8NDP4FO5MdShc4PF6kEPg8vVghiuLOyO90O6qtkEfOrnB8qsREIYfj7N72CWnzfjkf0AgjHBHKOZ/pUp5SzseR9TXhC9m3qkqUKKv1FvV2RDuOCaOkG7izufjr3vciy78xXjuA4zr4jkPOdyn4HvnATbsDXKeTia6n/38Az5UkDPnWf/9jpk5dxRW33jY0N6gXQIA8yD/ETb6lq8u/KeOTYb8LtR+NxNk0bNIc7YsnEPk14HXYXPNNqSqPfu4zfONTv0Pcbu344pfVJuNEO2lH9/5in5WhHSU8t1JjtdHq1lJ7H58o5jgwVqAUeLsyFW9t29PMbtkI9F47/Yw4Tji9XGWx2ryo1++WjVPwfNch73sUA4+875HzHXKeO7DBvTA1zas+9Ev4ufzAle0SKfAEqu9ibPovRmzbhoLV0PeYqsLycgFPfgH0NZ36nJ35G6gqrWqVMw98gzhs7+jC15swZbneYrXRRgRmSgXKef9yFXlTvXOtj0+VKOV8zq7UaHdGwWePr9RbNNoRk53AHrhOOl/7Ii+K2es818VzdydhS5gkNMNOK8OuvOOFWzf6fsM+CeOEMG6z2mjhOg6B51DwPcYKAeP5gOw+ZlACTH1hnjP338cVt97e76JcDlci8n9TXXy7qt43KPt8v7CA3g+ufhDVtyPiY8F8S5Uzs6ycfmZHO2htrrRydrXOXKVB0qkSx7ESeGVy/t6f9tLpE54u5RnLB5xerLDaGX2eBfYwTpirNFiutzg6WWKymDtnWlQ/eU7a5C2dUfHr57jTzRjT2xffXYSl00IiWdIa6UydA7Imi4TOwi5KN/WsZvnhO39tNd0u+7ykM7q/GcYsN1oUfI+jUyXKgT8wTdziOMw99ABX3PZSSJJ+F2c3pQMc4HmofJzKwpuAs30u075iAX2PqCrUlz2qS9+P8C6Qva0qDhtVqmdmaSwuXMRLldmVGnOrjXW14DBOiJNNRlPtkWxAV+A5XHlwnPlqk7nV+jlz1ttRzFPzqywVchyZLJL33A3v0R+uIxydKuE46c2H7zrdP4HndAavpYllnM789W6muR2VOw3qSSeox0lCGCe0o5hWJ01sO0yz2q0L+hvfpZNb/5Hnljk4XuTQeKHb7dDvwB42RnbcWDa098WofEhXl/4pY5Or/d7f+4UF9L3SqjhochvwM4pMdk5vO8u3EEchq7PPkoQh4lxYWtAskcqZlRpzlcaGi7ZSyvkEXn/zhffWMA+OFSgGHvOVBpVmu9PXvxbYVxst6u2Q6VKeiWJAYQCyqeU8l1MHxtd+sUUw7aWd5+1UdlPgOS45z4Wc3705SAfoJbTCmGYY0Win6WtbYbTuBinb3/OrdeqtkJlynnI+6Kaa7de+DMpju5eRZ/AI4CO8GfTr1Jd/A2hv9yJz6Syg75UkmUHlfcBNFszPT1VJopjK7LMXXLPL5qsvVBssVJvnBPNDY0Wmy/l186v7pTdol3I+ed9jtdFmodqg1grXPSdO0q6DlUaLsXzAdCnfXeyl93l7We4Nv+zLiZwOhnPxHIdSLm3sCuM0oNfaEUvVJq0o7j4X6OatLwQ+5bzHWD69SXIc2VFszTK6pvnwY9pxTCnwyfkXlgEwiWOmr74mbW4f3ZqrgBwAfS8J96nqF0VkZO9gBoUF9L0Sx+8DeQ3gYsF8W3GSUF+Yu+DpVACVZshcpXFOjfGK6TEmi7lOf+7g7PqsLK4DU6UcY3mfhWqTs6v1tSVKO2VuRwkL1bR/fTwfcHiiRM53B6qPvR96tzvw3DRRTi5gupRjvtJkvtLo5gBI+9ih2mxTa4XMrzbxXIdSzqOUS4O756Vz3kXWOoSzefTpDUNMvRVSz5aS7XTheI5wcmacYm77S6ob+By58ZbLtEcGiihcKeivU6u9UlUXLahfXhbQL6N0etqCiyvfTyLvxqanXTCNY1qrqxf8/ChJOLtaJ+ptbgWOTJaYKuYHuiKUNQt7rsORySKTpRynl6rUWiFJ0juQS4jihMVak6V6i6lSjplygZzn4g7YSO7z6V3kBV2rpO5G2bNxCr7rcnSyRCHweG6lRjtKul0d3dYPVaIwohlGLFSb3VXgsoF8ICjr59fLhs/K3rMdJ6w0WtsGdAWuetldBKXyKDe5d3X25PPQ9r+j2n6HqtaH4RwdVhbQLy8B7iSRX8SC+Y4k7RZhs7Ht87LgMF9Jm6vXLhbKVKnAdCnfqW3JQO/93mb4nOdy1YEJVhstluotqj39673PW6w2Wa63GMv7afNx4JP33b7Mtz+f3tHwUdwzwC1KAKWcDygG3q6NQu/dR5PFHKWcz0KlwWqznU672+K52X7rrPTKWnqbtRr7Vp8Fgueev+yqSvnQEa579WthQEbc74FsI18F+r9TWfo1YPsvtrkoFtAvk7R2vnwl4rwXOMZAh5PBEzabxGF4QTut3oqYq6xdI1SVQuBxaLyA6wxWM/t21gZzpclmSjmfWjvszqfPmnjXAhGsNkIqjZDAc8n7LsWcRzkXdIP7ZvXA3dgnW+VyzwauJUnaTN2MIpphTDuMaMcJYZQG9Tidn0beb3Ht4cldH9+QbaPvOmlLTZin1gqpNNtUmiFxz5Sx7fbHxmVke2vnvuswUcwxWcyf9/VBqcz1r3kdpZmDu7B1Q0WAEsiPgX5da3OfldLBkZqvNygsoF8utdU8ou8AfTVIf4dWDxtV2vUqmiTbjnBXhdmVWrdpOgsyV0yNEfRkC+u3i+nrFknzmE8UcpRzAc1yxNxqg5Vm69xlO4FWlE7pWm2GiDTwHaGUCxjL+xRzPr7rpM/vDCC8VL0jzpPOdLtWGNNoRzTCdNR5nCTdaWUbb0ay1zfaEe0oXjfYbzdln5fz07XbJ4s5Yk2otyJWm21qzbDnBgM2Nub0zoN3RPA9h0LgU8r53ZkTTjbPfpPjq6o4nseVr7iLk3e8DMcdnPNyDwlwFfA+YudrwM7no5ptWUC/DFRVqC7fDrwHJMBq5zuiQKte37aPUVWpNNvU2+vTRs+UC5Ty3sB0Uaoq+byf1lg3NPlup3fgXCnnUz7o0wgjzqzUqbbCdF79hs7drM+3lSjNsMF8tYFAN4ta3vcIOiurea7TWQSFdUlf0jdaW0orXXglnccfxUk3j3s7iml35vcnquf0MW+2Lb3lFEmz6OX2YDph9vmOAw4uE0WXyVK6TnmSZBnnOvPbE+3sVkkXiHEcPM/Bc9IEQZstELNVMHf9gFN3vpyb3vQ2HMfZj8E84yByF6I/o63KzxOUw328Ly4LC+i7TFWJK4unXJGPABNYMN8xAaJGne0W0sxSu/bWzgPP5dB4gTSZ2WDsehHh5PFppqaK3P/gs1RrO89L39vcm/c9Th0YpxnGrDZa1FohjXZElOg5/dBZjbw3i1qjHW35GZsG9K2a1jdsg7PNNmXv4rB2c5HzXWbK+V1dmGY7veVea+lIbywCb/ucBxfe2qIUp2e45jtfxfWved26MRD7VNac9G7a4VcJ+H22+5KbHbGAvos6edrLjie/ANzc7/IMLRGiRuO8c3S1E5zq7bWBcCLCVDHXTRoyKJJEmZ4qcezoBEHgcd/9z7C8sjHxzYXpfU3ed8n7RaIk6SRXiak2Q+rtkChOus/fmC71fJ+7bizYJp+55es23EhsvoCKSyHwyHkufrb2uuvu6ij3nbocn5nti6krr+aG130vR2/6dgvmawQkD/xLqsuPqurXbL/sHgvou83VHxZ4PTaq/ZJEjQbnS1miQL0d0o7Wxtb4rkO5EAzUxTMNbMr4RAER4dCBMV720uv42r1P8uzsCnIJNdNsGz3HoZwLKOVgppQnVqXRjlhttKm22rTDeN2o7a2ahrfaZ+d9rFONz2ryjkh3idNizktH3nsubneJ0/WfPyjHaTepKlfcfgc3v+XtFCemkP3dzL6V61H+CSsr71bVZds/u8MC+i7RVlWoLb8Q4UeBMSyYX5Ik3rxZGDqZ5BKl2gzX/a4QeN30qIMiG9hWLgbdE6KQ83jJi6/mwW/N8ujjc4RhfEkX/N5BZuqAg+AXAsYLAZAm6WmGcTpQrZPZLIx61jAH0M5o+HQad8+bp49lTfHZPG3XcXBdIXCd7uj6wPMI3PT3IJs21Y/0hVuEwtQ0N37vWzl15ysgSUZ7ey+eoLiIvgEn+SxLc78N7GxwidnUYF39hpiGYUlU34k1tV86EZJW67xN7rEm1HoCuiNCKecP5DS1UimH4zjdvmxVxXWE519/lImxAg8/NsfiUnVX52DDWrO36ziUcmmK1N6R6dmKZkmiJKz9fxaHs7nXImurpjmOdGra2X4+d3BY1howaMfhclFVcuUyx17wYq65+zVMHL/Cgvl20nvECYSfIvC/pKrftP116Syg74J0VPvS64G/R7pP7cy8VNvswXorIupcNFUV13UY2+O1zi/U1ESR3gDXO3L9xPEpJiYKPPXMIo89MU+7M2Btt4P7Zo+JpMGZSxpgLue77xp9Ihy84du49u5Xc+iG5+MXihbId0RegOoHgB8Ftm6WMxdksEYPDSFVFZaWDqryy8A4Fsx3RRJv3gKnnalRq431izf5rkPO9wbuYpokyuRUcdOxvFlZx8t5nn/9Ue68/RpmpstpK/egzLkz5+UGAde/+rs5/oJbLZjvXDbO6G1UF9+hqrbzLpEF9EugqlBdCvD4iIhlg9s1IiThefrQSRfY6FXO+wzAQmrnEIGJ8eKWc3OymrLrCAemS7zyzuu4+cYrKBT8/V3zHRJxq8Vff+xXOfvQ/aha8rOLFAAfpLJwrd3IXhoL6Jek4iq8BeE12Kj23aOKm8tt+XDYyQeeNbcrMJ7PDUwimV6+51Is+NueGGvN8ML11x7mO19+A9dfe4SJicLlL6S5JEkc85VP/FvmH/mWtazsXPbVOAby01SXJmwfXjwL6BcprZ2H14ryTqypfdedr3baaEdry2Z0BmxdrrShl6pQCHAvIFkJrNXWBSgWAr7thiPc9sIr+fabrmBmqgSsrftuBocArZUVHv6zP6GxsmzHZ+cExEfkDajeRXPJ4tJFsh13sSqLgSpvRrgTC+aXwea7VEjnn3eTmaniu9uvdNUPqjBWzuGy85H30pkaNjGW55orD3DH7dfw8pdey7Ejk4is5UW34DE45r75IAuPPtzvYgwrAY4C/4iIqX4XZlgNZrVmwKW18+VrRZOfAHwsoO8uVbx8nk7+1vWPiaRLYPZkF8v72SEYrOCmqpRKuW0XmDmf7sIigcvhg2McPjROvRHy9DMLnJ5dolZvE8dKEickPdPNzN5r12ucfegBjtx4C14uZwPkds5B5FXAW1T110VksL7QQ8AC+g6pKtTn8qj7LxE5igXzy0LczedSqaZLcmZZ5FSVnO/u2lrau8lxhFIxd8nLgm6cW17Me9xw3WGuu+YQlWqThcUaK5UG9XqbViui3Y4Iw5go7iwy0lOL3+weqdfmj69NTevN956tLiZOT3eBdBZ52ZARrvcDsqxySZLNg++Us7PAS1aGQTue23Ech8VHvkkcRXjnGQNizkuAf0F1+X+q6oPDdg70mwX0nRPUexuiWXpXcxl4+fzGRcSAtA4ex+tHE+cusI96r/meQz7v7WqNufcC5zrCxFiBic5iNGEY02qFtMKYMIyIws7qYVFC1FnKtDdwbuQ4Tjqy01kbee84guM46QplPb9D0n/XAnlvQOe8i630Lqfa/ROnZWyHMc12SKsZUqu3qHVuUpIk6XnPwf3a1ebniVstKJX6XZRhdgjVD1Gf/2FVrVtQv3AW0HdAVWF14QTifEAhkPMlGzcXTVVxgvymy6cmmwQjb4vafL8FgUc+d3mT3awlq4Fc4BH4LmM9j6dJ29Jab3fltE1q4d1Bhp036z4sWfiUnp+3L8+F2Nj/n5U17qSriztZ7JrNNvOLNWafW2ZhsUocp8uuDtKKepmo3SJqNftdjGHWOaB6N+q9EfiPfS3NkLGAfoHSpvYVH8f5MeCkxfLLy8vn2axPPMlyj/c+dxAnoAO5nEcut7fJbs5Zgzz95Z59/k5sVdZsyIHXCfj5nMfkeJHrrj5EsxXxzOlFHn9ynnq93V1VbmCobnojanZEEJkkSX6EyuLnVfWZQbtxG1QW0C/YvKg6twryBiDHILf7DTkBvFx+00C02aju7dbh7gdVJZfzyQWDmY52GKxbdIY0UOYDl2uvOsRVpw5wdq7C7JllFpfqrFYaJEn/x1G4vo8bWP/5rhB5CejrqC1/AksLe0EsoF+omlMU5W3ADf0uysgTwS8UNl0+9WLX695rjiMUCwHegPbvD5uNx9hzHY4eHufQwTGq1SaLy3Vmz6xwdq5CFMV9a5nIjY2fNymSuWACjIO8kzj+Y+B0vws0DCygXyBV9xo0/iERW3xlL/hb1NCHheM4lIrBMG/CwEsH7sHEeIHxsQJXHJukWm/zxJMLPPn0PFEYp+MB9uggqCoTx0/genZZ3UUvQPgRVf1XNo1te1Z92IaqotVFX4g/CDKNBfM94QUBjnehzdWD9z0XgfGx/CAWbaR0V41zBN9zmRor8MJbTvDdr76ZW246wcR4Ac919iTDnogwfe11uL4/kK1GQ0gAF5x/SmXlRL8LMwwsoG9PUP0ukNfbd3TvOL6/aU0nmwO9cW71IFFVHMehXC5g9397J50Tnw5/DzyX6685xHe87Hpe9IJTnDoxzcR44bK2mBQmp5i+8hocq6HvLqGsJP9CG4s5y4x4fnbmnUdnmtoBHOf92Drne0o8Dy+fP2cK0MY1xYFN51T3k0g6MruQ9+2M6YPecyPwXU4cm+TYkQlWKw0Wl+ucObPCmbkKcWeBn90ydc11TJ48ZbXz3ZUNh3gdkb4S+PM+l2egWUDfjiNvBW7qdzH2G3EcvHwBVpbX/d7ZZPJ/nAxWQAdhcqKYJl7pd1H2uSy4eq4wNVFkYrzIyePTNBptnnh6gaeeWaDRiHAcuehsg6qKXyhy1cvvIihaQpnLQIAZkB+iuvhlVV21m6bNWUDfQidf+0mQNwMlrK61p0Qcgk2ybaUpQdf/btBq6EmiHDowtn2eVbOnRAQHxfEc/LE8t9x4nOffcJTZ51Z47Ik5KpUmUZzsqOauqojjcOqOl3PkplsGr/9ndDjAd6DOnTQr/x0bnbIpC+hbqS244NwN3Nrvouw32ZKouXL5nFqTdFcuW/s+x8lgJRcRgZmZcr+LYTaxMS++7zqcPD7FieNTrKw2eO7MKovLNSqVJvVG+7zBXVVxPI/jt97OTW/5ezCA6wmMEAGOI/p9xNEXgEq/CzSILKBvJXEmEX4AmMBq53tORAjKY5v8/txEMtGANbmXijlKxaDfxTDbWH+jCJPjBSbHC7TDmEqtRaXSZGmlxuJqRGW1Rthqrb1OlaBc5qpX/h2ue9V349nI9r0gwJuSRH9DVb9k09jOZQF9KyJ3gb6y38XYtxwHvzx2bg29s0BIr0FK/6mqHD08zoZGBDMEsvMs8F1mJotMTxY5cWyS6NDVhNe/gtXZ06yefprm8hK5sQkO3/xCJo4etWlqe0eAKQd5L/B9/S7MILKAvoGqQm0ljyY/p6gv1gnaF+I6BOXyphdKd8P64mGUDM5RUjhyZBLVwUxJa7bXm3JWPBc3bpA7dJjyzAGO3fwCcJx1OdstmO8pAX0DK/O3q+pXrJa+ns1DP5eg+v3ALTZGuX8cxyVXLCPOxlM07ffUnotpGCekh63/3+1iMWBiPG9nzogQQBoVRJO1JWJV09/vYRY60yWIOLjOB6guFgbhOz9ILKD36M47R3+Szne232Xar0QEv1g8J7mMKvju+tM2SuKBGF2sqkxPlwZ2OVdzkdpNiMJ+l8KsI3cgvKLfpRg0FtA3cuT1wPUWyvvPyxc2XegicN113dNRrAxCL7qIMDNVxnOt5jZSkhha9X6XwqwRVZ0ikbeytFS0Wvqa/x8AAP//7L3Zk1x5dt/3OXfLtTJrr8KOBhrd6OlletYeDsmRRA05WsKkKJJhPUgRlOwH+8Xhv8JP9pMdfpIjHGG/2LJoKUSJpEVSIocccjgcTndPTy/objR2oJasLfe8y/HDzZuorCoAVUBWLjd/n4gCasnl3LzL957zO4sR9C6qCtWtReBXUZ3BeOejpTtxzc3mD/3JdSziaZrxiRypEo1Bpnsm41CayRoxTxPJWnnLVEmNEyJiKfrzuPo27Dz7CVOCEfSEWk1AvonK18Ynw2p6EcDN5nBzuUN/8xy722Am3k8KdMJwuAYeQLVbrlYw5WqpQiQ+GP3OqC0x9CMichX4Lo3IzKvtYgS9R5BH+PsIZzDe+Vjg5vM4ufyhZDfbsg5lkHf80Qq6oBQLGXJZz3joaSQwgj6GOCC/hdqLozZkXDCCnmBZK8S1jeYzGRPcXA43nz90d2VbgrMv+12AVhCO9C7Mti3KpRy2bcQ8dYh0Bd3s2zHkOkT/QFXNzsGIFwCqKlEY/DNgBXPWjg1OJkOmUIzrfg/guv2la+1OONK+6WJZzJbzpplMWgk65sowfoiq2kT631Pdck1ynBH0bjLc9oIl8l9hTtmxQiybTLmMtd8b77bdzLmPy9lUlXYQjqwOXVWxbaFUymIOoTQiEAajNsJwBBIn01wHfh1z8hlBJ5738U+Bc6M2xHCY3Nw8cqCuW6FP0AH8KBrZGFURIZ/zyHiOyadMI0nI3ezccSRp6/ff0GgczqCdMoygNzZnQP959ydzxo4RAhQWlxDrcKOWrNv/u0gVf4SZ7mVTrpZuotEmXRqeioC8QdT5hVEbMmqmWtBVFdT+HsgFjJiPH6rkF5YQyzoUTnccu9fTPQnDt/3RhN1VlXIpx7gtoCuxbdqt04+iiCjS3u/MmuMJCDrjtnsNjxGgDPqr2qi5ozZmlEz3cJbmTgHl74HOmHja+KFAbnYOJ5vFb9T7/maL4NoW7SD2nFTpfT9sVJVCMRsbPOKjSFVBIIqUVsun0fJptXza7SCe7W0JnmPhZVwKOY98zsNx9t0YGY7GeOjjjgN8k6Dzqqp+MK3H8tQKejxVbec14Bsgpvn2GCLdbnG5uTmaW5W+3wtK1rVp+QEighIL+ig0VYFsdnQNZRJPW4FGo8P6ZpWt7Tq1eptms0OrK+aJQ25Zguda5HIexUKWxfkCZ1ZnyeceOzeTekHsizrs34Z9v3+ubTOCPgHoddBvUK18BEzlDptaQafVcoj4OsIrjNyvMjwRy6J09jxbn3/W92sRIeM6QNzwQ1Xxw4gwjLCc4d2fxcs24HnDvSc8KFwblSqf39xgc6tGEISEoR4xS/7xc9udkHanyc5ukwdrO3z82SMunJvn2tUVchmnryRwEuh9HiL4fsjd+1s8Wtul3Q7wMg5nV2c5uzpLxrOfb9sik+U+5ghIAZFfAfkdYHfUBo2C6RX0oDWDRH8fxPTqHGeiiPmXrnLzT/74QPkaZBwbSx4vbfpBRCeMcGxraEIkIlhW7PUOg543rtD2A9Y3q9z49BHbO41D4zyP+xlEodIMfG58tsbtuxVee/UMF87N47k2HLgpGEeSz6TZ9rl9t8Inn67R6YTd9gUCKA8e7uJ597h8cZErlxfJ51xs6wTHick3mAQE1V9GZFVVd8f9uD0NplLQ43D71iXUjN8be1SZvXwFouhQgxnXsbBtIQi1Nxc9no2eThLhqjXarG1UuXO3wtZ2A9C+m53nIbn4tdsB7753h7v3trl2dZmVpRKuM7wbpJMSJ/fBo409bny2xmalCsiBG6z4pivwQz79fI07dyu8dGmR8+fmKM3ksOQYNz9RiMmKG3sEkTk0+k3gf2AKd9hUCjpxeOa3gDIm3D72zCyv4mSzRMHjsKeI4NkWnm0TdJt+hFFE2w/QrDfcFMdTzhhPXtsPIu492Ob23QrbO3XCMPGeB7ex3UYdbG3X+cn7d7h4fp7rr5wh49pjJ+qqShgpn95c5/MvNmg2O0+3UQQh7vv/yWePeLS+x5XLi1y6sIBtPUPURzz8x3BsRIXfFrb/J6A1amOGzZSWrd3ziPhtjJhPBE4uR3F59dDvXdvC27deLiI02sHQS7IiheCUIgPJdrQ6AT9+7zbvfXCXzUqNKDr99e1OJ+TzLzb487/8jFYnGKsyt0TMP7zxkI9vPHy2mB9C2N1r8t4H9/ib924TRs84ZjS9kZ+0IchLVPW7o7ZjFEydoMetXnP/AOGwQhjGk0hZePnlQxdcESF7IBmt3vEJh33xFei0TydpSlXZ3m3wx3/yMffub+/zyodDFClb23X+5M9uUK23x0LUk7r6m7c3+fzzdYIgeu7PJAwjbt/d4k9/cIN6s0P0xO0b/XYbToBY/1x3d+1xOF6HydQJOnt7jiK/3T1BjYc+5ogIRCEL1147UkyKnts3SjUIIxqnJK5PQhAazcGP14yiiIfre/z5Dz+ncWIPdDAk71mrt/jgw/u0hvzZHiQ5Bh5t7PHxJw8JwucXc3i8fVvbdX787m32qq2jb1o0Molxk4EAlqq+A9HLozZm2EydoEcSvCLIV00jmQlChPL5i9iOc+DXQtZzcJ3+TnKVeivObR7SBVhEqFZbAz2kVJW9WouPPnlIu+2fSLSO2u6+jnHa3y3uWZ+TiBBFsLPbpFZvn3hbBk2z7fP+B/dod4KB3OQkeQgbmzU+/OQhnaM6DhotnyRERMtY0xd2n6qkuDi7ffvvopRHbYvhZGRKJXJz8zQqm32/t0Uo5zK0Oo89x2qzQyeMcO3h3K+KKHt7zYG/7u5uk729FnE1ThxqP1hbnrSnS7K9tas8jiV4nkM245LLueSy8fCYpCtcFMbDbPwgJPAjgjAkCEL8IG5AE4YhIoLtWGQzDuVSnpXlEnPl/MC380SIcOOzNeqN9qlELB483GF+rsCrV5f7P2uN4i/Tg2oyUPLAL1Cr/R+qujduCZ2nxdQIeizm1RmUnwcKmHD7ROG4LuXzF6hvbvRdyBVYKGRZ26v3id7GXoNzc8UhWSdUay00ipAXLB/bz8J8gYsX5tnYrMZJd9qVbxFsW3AdC891yGZdCvkMhUKGQsHrTX5zHGtfNxmODhknf+99pNIt3dbHP6Nx5t9YoFRrbWzbJoqivk2SbhY7B8rQVCOiqOtkP7OuXvn4xkNefmkJ2zp442SYGERE0S+J+C+LyN+M2pxhMTWCDoAGrwDXMWI+UYgIlu1QOn+JBz/58aHQtudYlHMZdhvt3uPbYTjUvdzuhLQ6AbnM4ErmCvkMX3v7EmEYEoRxuFwErK6g25bV/1kcFSbe3xXtaYbp42+0T7z12c8dJgpf+/JF7j7Ypl5vE0XxXY5YYFsWtmNh2zaOLViWRRRFdPyQVjvuZ9/pBLQ78f+BHxFGUfKyya0LYRjR6gQUslM952PSEUFeUuV1rdXelWJxKsoUpkfQazULeA24MmpTDCfHdhxmVlexvQxR4Pd+n3jky6U8zU5AOwhxLGGhmEN1eDqkqnQ6IbnMYF5vvxfp2DbH6mY7oI0d5/CkiJDLurxydbkXsWD/fpbeP/uIlyOCIOoJeiLqrXZAu+3j+yFRpDiOxexsnlzGOfgShsmjiOq3I9r/L1AbtTHDYHoEXfwsyjcx4fbJRIT8/CLZcvnQOjpA3nO4slSmFYRkXbuvPn0YKBp7e+bIGghHJeolNxqyb5ngSP0+/ExEwHNtPNemkH/c7TmpZ49/iP+zbQs52D3OZLlPJIJ8R5AZjKCnjDgR7m9hLrkTS2F+gfz8wiFBT7z0jGuTcfsbzQwLoRsCH4MRqpNOPPBGaTdbtGt1vFyOTDFOxhtcVvvj74+X9mDEfAIRRF9FeE1VH4lI6nfiVJStdS8QLxOvnxsmEBEhOztHceXMkRf1ZDDJ/q9hoarYtpA5GKY1PDeteoP7P/2QBx9+wp2fvM/e2saoTTJMJCKo/gZTckc2FYJOHHP7NeKIhPGfJhTLcVi48jKWO14D8kQg3y0LG+Pl58lBhOpGBb/V7g2d2X24NmKjDBOKAP8FbGdHbcgwmB5BV/6RqprL7QQjqiy99jp2JjMWLUgTVGF1pTzWyWSTgnYzGRtb232/sz1vfDLtDROGnKUm70zD9T/1gq6qQn3nKwgvmQvuhCNCYWmZhavXxkY8k9r3ixcXTNLUgIj8gE6j2bePC/OzTEnU1DB4BPh1eDBqO06d1As6cWHtr3UvtuOhAobnJ4q4+nd+eaw89EsX5inkxmsZYJLpNJuE+8eVqpIvl4yeG54HQRHQv82uXRin68ZpkH5B37ubAfkVE65LD0uvvkbp7PlRm4Gqks95XLu6cowOZIZjIUKrWu37LC3Hwc09eQn0JH3pDVNIfCidwfbeGLElp06qBV1VCSV3DbiI8c5Tg2VZXP3u94ii0TZ/EhGuXllmpjigbjIDok/gRIhEJkrsWnu1nqCrKl4+h9iH+wqoxp3rI6Dlh4QkzfEU484b9iFAHpF3Rm3IaZP6Ohtb7KSZjCEFJDXnZ9/6Ch/PL9Da2X72k04BVeXs6iwXz89hDblM7mmoKp0gZLva5IObj7h5Z5NQI165tMJbr5xlrpDFtsbH3kOo0mk0+wajZGcKhyIgqkoQRrz72QP+zX/6KZs7dRbKef7uN1/hnTcuUsh49NrWGgyQI9K32apkVLWd1uMitYKuqrCz42DzNkIO46GnCi9f4PzX3+HTP/z9oe9YVWV2Ns9rr66Sy4xPv+9IlbWtKn/23i1+8O5Nas0OlhV3KP/Jx/f5/k8+5x/+wpd4+5VzxHNbxu+UiKKIoLNvXKwqmUIs6Ozz2sNI+asP7/A7f/w+te4s+spug//7P77LrQdb/OZ336Zk8hoMj7GAK2Ts88DnozbmtEh1yB1HlxC9RopvXKYREcF2XVZef5NceXao762qlEs5vvrWxd4o0VELYxJOf1Sp8v/80Xv80Q8/odH2u2IOIIglPNjY5V//0Xt8cmd8m7SEvk8U7UuIE8HN5w49rlJt8vt/8THVxuH57D/84A6/+/2fEQ5yiUEsUzY36QgXQS+N2ozTJNWCrqqXQC5hvPNUMn/5KrOXXxra2nAi5u987SXmZ8dDzBNafsgf/ugGP/v80RNXj0WE7WqT//M//IimH47lmnrQ7vRNexMRXO9xjkJSp/79H3/GWqX6hM9f+euP7vLZ3c3BbeOY7GfDcyPAGaLoJXZupVb3Urth7O2JwAXg3KhNMQweEcErFjn75a/hZIfRBEqZnyvyja9cpjST7dkwDihwd22bv3jv1jNTwVSVyk6DP/jBh4xjm42g3en72XIcrAODdpqdgD999/Mnfv4iQqvl8+6NB+Mzxt0wDnhgvYldPhzySQnpFXQr8kBeA4qjNsVwCqhCFHH2K1/jzJe/ilconIrHmbzmuTNzfO3ti8x2rwVjI+Zdj/UP/uLj3mzvpxEPIxF++LO7bO81x8pLVyD0g74GPbbrgLXvsxbhvRv3aTT9wy+wjzCKeLC5y169dUrWGiYS0SSnKpWkV9DRHMJbmHD75NOdvhUPwFbw29DYRWpbZAh4+x//Jl/9Z/+C89/8NnYmAwMq0VJVXNfhtetnePvNC5THzDNP2Kk1+fCLtRPZVW+2+ejW2tidHWHgo+wXdBehPyv/3U/uY9tPv3SJCHvVJju1Ad20iBV/GSYceZ0oKo3aitMivcliIjlU3xy1GYYXJLkYq8Kjm3DnfdjbhDDoljJBRizOOR7Lr86xc+mX+ORH7/Pwi7u9l3geAU6axrz1xnnOrJSxrQOzuMeIm/cr+H74TJHbjx9E3Hqwxc+9cam3bSNHlSgI+0rIbddB9v2i7QfcWz9eqWKt1ellwL8wY7jfDSdGUOYR+ZKqfpHGcaqpFHRVherWKvDSWF6BDSejVYN3/wDWbz8OvyZlTEl9cqeJyy5LUcTSl1fYvlTk4xuP2Nyq4/sBUXS8mmTt3iSUSzm+9valsUt+O4Rlcffh9r6M9uMRRRGbO3VqzQ7lwvgMoorCsO8mzrLtvnK1rb0GzZbfV6f+JDp+SCcIn/qY4zOm+99wMuIqzu8AvztqU06DVAo6IAjfAjncXsowOahCbQv+5vdgd+3QWmrf/3QvuZaFqjJXzvPO119iZ7fJ/Qc7bG7XqFZbdDrBE4VAVbEs4eyZOb78+jlyWbf7FuN9Md+pNU9so4jQaHaoj5Ggqyq6Lw9AIRZ0HkdHdmstwmO22Y1fb1BZ7qZsLQ2oqojIL5BIe8pIq6ADvZ1mmERUIfThi3dhb+NEF9PkYm+LMD+bZ242T6PZYWe3QWWrzvpGlb1qkzBSLHl8XosIF87P8+aXzpH1nLEX8oTjJMMdRasT0Oo8Pbls2Bxc7xbL6tv19Ub7BJdhGdwVYEKOBcOxeJPmVllVdyblHD8u6RV05VtqWj9ONrUtqNzlRW6kRQQBCjmPQs5jdbnEq9dWaLYjNreqVDb2qNXbgLCyXOLq5cWJEnMA94g+58fBD0M6wWj74fehRwl6/35odYJjHw2ubeGcIK/gqVhJpCB1Tt1UEZ/XmieQt4Dvk7IdmjpBj+efV86BdWmSLsqGI6huQX1nIC/V89otC9uyyLgwW1zg5cuL9Ny4Xjb9BKHKfCl/rDXlw889HZOenyMMEnluO7MZh+ygWvOaDPcUIYLozwF/OmpLBk3qBB1Q1Po6YsLtE00UQK0CUTjQcOch0dPeP8kDBvZeQ0GVC2fmiCLFtk9mu+NYuIPyYE8LpS9s7rn2sQReVSnkMpRyA5qEZ6fxUjmVCBCh8k1SGHIZ87P5uUnG5E3Y1dkA9JrGUK2M2pKJ4KUz87jOycPuWc8dq+EyHDG1Tg/kBxRzmWNHIsrFLKVidjDLJ1ZaL5VTiSC8RnMrP06NlQZBWo/Sr5KyO6+pQyNo7E6exzwCZopZrpybP9FzVJViPkMxPz4TyQ42kIG4vO5xFZsyW8phW/LMZjGObXNmsUQ+O6iQuymYSRllfC6O2ohBkypBV1XY3SkB19B0bdvUEYXQbozaiskgUr7z9Wsn6ohmWxYr8zMUBxWSHgQClmXv/5EoCNhfhbBQzlPMe8/0uj3X4rXLKwysdYgJuaeNLMLVURsxaNInelZ0CTRrgu0TThRCMF4lVeNIksV//dISl88uHFvUM57D61dWxus0EYkHsezrMRB2/L5Qm+c4fOnq6lO3U1U5vzzL1fMLg7PNdswCXnoQIKPCtVEbMmhSJegiAsJVVLKY02+yCYNY1A3PREQoZjy+85Ur5LPeM0VdVbl6fpFrF5eGZOHxsV23z/sO2p3evHcAVPnOV67iOE+4dKliWxb/8Bdfx3Pswayfq4IzRrkGhhdGVT1BLpMyDUzVxsQnvbyEYM6+SScK43X0AyQX9/1fBrAs4avXz/OV6+eeucZcyHn8l9/7CplBCd6AEMDN9ofTw04HDrRvXZmf4Ze/dZ3oiC5wkcL3vn198DcrlmuyclKEiDjAWWpbxTRdQ9K1MNRoCMJFlDFaGDQ8F0eIeUIYhIR+B7FsbMfutgcd/xatp4mIkPMcfuu7b9PuBPz0s4d0/KDb8j4WeMe2mCvl+a//0c+xVMqP2uQjcXO5vthaGIZ0Wi2c7ONT2gK+986rVLbrvPfpffwgBATPtfnG6xf5lW9dZ+ApbI6DUfSUoTqPWPPA3qhNGRSpEXRVhb3tAhZnSdF2TS1hyMEiZFXFb7VY+/QLGjs72I5DfnaWwsIsudIMbnY8x5sOCxEh5zr8i199h7/62R1++tlDtvcaRJGSzbpcWp3jW29e5szCTO/x44abzWDZNqH/uOd+Y2eP/GwZeHxzkvMc/smvvM31y8t88aCCiPDyhUXeevkMOXfQN3gKTuZQTbxhohFEFhCdB26N2phBkTLh01mUOVPqlAKsx0M5eohQq2zT2NkFhdAP2FvfoFapkJ0pUlxcpLS8iO063YdP33EgItjAt964xNuvnKNab8WCnnEp5TNY1uHSsHHCchy8fJ6g/XjsaWN7B1662OuGl9hfyHr8/Jcv8+03LwESN3PTU9jvvTV0o+gpYx4YYObk6EmNoIsIWq3Mg8xjzrrJ58hGHhrP2xAhiqLexV0jpbGzR6tao7q+wcorV8kUC8/XDjUFJJnv+YxLfpwaxxwHVfJzZepb2739267VicIQ68Axkezbvn7vp7G7FbDHp17fMCh0TiOdTdMVIjVJcd2EuDlV5kZti2EAHDWuUqG0vEy+XMJy+u9FE2Fv7lW5/eP32Lp7nygMTdLcBJKfm433WzfpMQxCWtXa6AwSBdek5aQPyYvIKrX11HQNSo2gd5kVoTxqIwwDwLK7YffHiAi2Y3P2jeucf/M15i6cJVMsHHqMqrJ58zZrn96k02waUZ8wMvk8juv2WsGKJdS3dkbbNdCUraURATmDlU1N+CU1IXd2dwWbeWBm1KYYBoDldCdc9ZcsJWHYXGmG7EyRzkqLxvYO2/cf4jdbvccAVNc3CTodVl6+gpfPTWX4fRIRS8iVS9QqW739HedN6IhEXUzIPa0oZwjD1Ohgejx0R11gmTTdpEwztgXOky+iIoJlWWTyOWbPrnLhrdcprSz1PPSExvYu9z74iKDTMZ76BCAi8Tr6wlzfKFu/2cJvt0dnmPHQ04ggeg7R1NytpUfQI3VQXcYkxKUDebqg9x7W9eDcbIbVV66yePkCtuv0ibffbHHv/Q/x20bUJ4V8aQbZt+SiGtGu1ka0/yywjaCnEAVZQazU7Nz0CLqog7AyajMMg0IgkzveI0UQAbEs5i+eZ/nlK3i5bF+We6fRZPPmLQLfN6I+Adiei7tvcIxGSrNWH5Exh/M5DKlhCU1PVDc9go64YAQ9FYjEX5lCX9j1GU/qiXdpeZHla1fw8vk+Ua9Vttlb20Aj0zJ2nEmWU7Izxb4e7p16kygcQX//IxI0DalhDksLz37YZJAmQXdAxm/ahOE5Oamgd5+VNB2Zm2XpykWczONhJRpFbN990FuLNaI+vkhX0GXfClrQbuO328Pfb7YdfxnShgAeUZQaRzA9gi7qEHf+MaQB24oF/TmymnuivjBP+cwqsq8hSdDpsPH5LdOVe8wREdxcFst9LKR+q4Xf6jzlWaeEY4Y3ppyzozZgUKRH0BEPmB21FYYBIRZk8t3Sted4erdb2ty5M+RnSz2vTkSoVbaob20P0NijUQ5Mhzv1d0wXbjaDm8n2ZqKEQYjfGEFfATc1SdCGwwhYZ0ZtxKBITTIA6ByQx9xKpwQBLxeXCwXP55UljWiWrlymuftTojDsee9bd+6Rny1jWdZA69Nj8Y7Dw0HHR8MQjRuMY1kWlm1jOTa242LZh29WTK18jIjgZjK42QztejcZTpVWtRbnQMgQ2/p6OcyktTQjqfHQ0yPoYbiE2GLkPEV4WXCzzy3oCZlCnrnzZ6ncvkOSPNeuN2ls7VBcHNwqjaoShSG1zW2CdjsW8n06ICLxeA8BECzHxs1m8PJ5XM8Fy+rzPqdd3C3HxivkYIve0JXmXpUoCo+8GToVVGNBf7zjDKlDjYc+bqhlL6KKUfQU4eZiQW+efFxxEuaOghC/08bJevFaepI0HYZUN7cozM8iA0x4au5V6bRacMRgmESsoyj+W9AOCdodmrtVLMvCy+fIFAvYnvt48Mg0i4hCtluPrt3s9qDdJmi149awwyKT73apG95bGoaGoiyP2ohBkRpBB12Uqb76pQzp1qH3LqbH27WJaHaaLWqbFarrFdr1OqoR+0vbVJV2rUa73oizqQdw6CQ3EJLY/wQOinVy89Gq1WnXG90RolncbBbHc7HsQc/3ngxEhGyxiGXbBEHQ6wJY39ohO1McniFeHjM6NcUIi6M2YVCkRtBFZMEsc6UMNwPZ42e6J2Je39qmcuc+rWoVjZIZ2odHb3aaLZq1GpliYSBiGQ8SsU586T8o8FEQ0Nyt0q7VsT0PL5clU8j3hH3/Y9OO47lkCnnCzuNll9pmhYXLF4YzHlc1vqk0gp5WBNIj6OnJco90+aQ1y4Yxx7IhVz5WU49EzPfWN3l043Oau3u9ddf9f+/LkFalsbWLRtHAMqfdbOZQP/nnIRkHG7TaNLZ32X20TnOv2o00jFcN/ZGf7QApLsyhUbzdyXz0oDOs8rV9a+iGlKKpKXdOj6DDrDnnUoYqlBZAni7oPc98e4fNL24TtDt9Qi6Whe25OBkP2+nv897c2SX0g4GYKyJ4+RxuZvBlTqEfUN/aYffRRq+5yjiIemKH3/EJfJ8oHNzNUUJhYQ66N0nJV71y+mWHQFw26WVNQlyqkfyoLRgUqQm5I1I2p1wKmVmMPfTg6evofqtN5dZd/Fa7LwybnSlSXl2hsDiHbds0dvd49NGnvRaiYRBQ395h9sxgmkWJCIWFOaL1CkGnM7CQcPI6QbvD3qMNMjMFssUizr4EulGxt7bB1t37oFA+s8zcuTMwwHJAN5shU8jTaTSB2FmubW5RPjOEXCax4qUfQ1pJlWykyEPXGUxgLF2IQL4E2fwTxTzxBjdv3aG5V+2KSNzEJTdbZvWVq8yeXcH1PCzbpjA3i9sd3JJQXdvoeYCDwHYcigtzfW1nB0Uikq29GrXKFp1mc6Teut/usHn7Lp1GE7/VYuvug1MJhxcXF/qaA7XqdYK2P/D3OYRlm0lrhokhRYLOzKgNMJwClgNz5578dxGqm1uxKHdRBTfrsfLKlV7CW+/Lsvpqz5Pa5tAfjDgkgutkPIrzj0X9NIQ9aHeobW7TabaA0ayrB51OnNmfJPSF4UDtiOejx+vo+z1+DULatdrA3ueJOF58DBoME0CaBH2IdSyGoaERrF6B6OgpWxpFVG7d6fb9kO6auXDm1Wt42ezhsK8qxcWFx/XoqkRRRGNnd2Am7xf1maUF3GxmoBGA/e8ThSHV9U2C9gh6nB+F6okH6hwHJ5fBzWW7b9GtCR/GUoObee72wwbDsEnRkSpmgkJamT8HztHrmFEYEnVrlHsPP3+O3Gz5iS/n5XO9WduJ516vbA1UIBJ7bMehtLxIrjRzKCFvUO+jqtQqWwP3jo+D47p9Wf1JPf2gsS2HufNnyRTyePkcpeUlcuXSwN/nECYhzjBBpEfQldRkKhoO4GZh4eiwu2XbFJcWe2HtXLnE7LnVIzu1wWMBL8zN9q3JNqv1XmnUoNgf5i/MliguzOHlc72hLYN8n9APaNebA3vN4+JkvEOJeTv3Hw10mSH+DIXyyhKr169x5vo1Fq9cwrJO+fKVtH0VMaJumAjSI+iCY+rQU4qGcO41OEJwRYTFly5y4e3XOfulVznz2is43jPKxlTJzc2SxN1VlbDj47fap2B811vvjgOdWZxnZnEey7YHvrY+qDyAk5DkJPSVAlZrVO7cG9gyQ+/Gy7Li7P5y6fTFPMF7ckKmwTBupCjbQ3Im4J5CuklRLJyPvaXgsOhalkW+XD7wtKcfDNlCHrHs2JMHUMVvNsnkc4Oz/Sh7LKsXNm7uVWlX671Q+YuWecmwRG4/qsydP8vO/UeE+9qzbt25B8Dc2VVsx+mJ4km2sRfGjyLCMKK1u8vWvYeEvs/CpQvMLC+e7imfeOjmwmKYEFIk6Gphzrz04mZg8QI8+pT9u/l5RdByHRzPjZPJuiLUabZOvcFnL3FPhHy5RKaQp11vELTicav7R7weF1WNJ5Od0s3Is7Bdl8XLF1i/eRuNol6Xu63b92ju7DGztECmWIgb+7juY+86EXn21ZuqxgIeBATtDn67Q7tWo761Q7tW7ybECeuf3SSTz51uT3eReA19FDdKBsNzkCJBN2KeWkTAdmDpIqzdjDPfX+jl4nVtN5vtZYerRvH3JxgE8yLvn2A7DvlyiagYEnQ6BO0OnUaL0Pd7wn+U977/b736+lPoUPcsEhtKq8u0G012H6712dvc2aW5V8XNeNgZD8d1sV0Hy3YQ2+7No4+iEA0joiAgCAJC3yfs+ATtTs/z3/9+KKff/tXqNpUxIXfDhJAmQTekGbFgdhUKs1DbevGXI+5A1tjRXq3zfhEdFsl7WbaNl8vhZrNkSzPx2NdWm06zSdDuxAl7SfhAif+xbbL5XJxB7zp9rzdMRATLtlm8fBFU2X20T9RF4uWMVptOs9WbBX84BK89oQb69kNf/Xk3DO9ks+RKp9x6Quw4IdP4CoYJwQi6YXKYWYhFfSCCLthefwewWDRHk1i5X7REBMuzcDyXXHkGurXyURhCGEFXQMWx+6RmlC1gRQTbdVi+doVMMU/l9n2iICDqhuAP2feMgS4HRTyJqjieQ3l5mbmL504/Mc5x48YyBsOEYATdMBmIxB27zlyDR59B8GLhVrEtssUitusQ+gGWbcdz0Ue8XnpUaB3ixD/LsuCILqSj7uWekNgxe+4shYV59tY2ae7u0Wk2Cbv5AcDT58Wr9tbTxbKwXQc3k8HL58iWSxTnZ3tVDKe+3Y5nBN0wURhBN0wWixdh/iysffHCa5v5uVmWr12lXa3jFbIUF8ZviuK4iPVxSex1MxkWLp4j8Jfxmy38dpug1SHodAg7HcIgJAqDvoiIWDa262B7Ho7n4WY8nIyHm8ngZDKIdfJM+RciEfQJ2weG6SVNgt67sR+pFYbTI0mO+9LfgvXbcXLcc15sRQTbsSktLaALcz3PfNIEdFzpCbsXJ8LlmOmukXdHoAJ9JQWaPC/+J2nKs/+1hopq3J3QeOiGCSJNgt4CsqM2wjAEZhbg+rfh4x/wIgP2eoJhP33eepo4uGY9DLEcqTA/LyLgevGXwTAhpKnAcvhtsgzDp5s1zeUvw7lXzeCME6CqRGFIY3eP2tY2fqs9srGrE4GbNaNTDRNFijx0bYOYEarTgEgcDn3123EI/u6H8TS2F/AAR+G5Dotk29r1Btv3H9LY3iEKI/LlEotXLuHljphKN+2I1e3jPj3RG8Pkkyb3ZvAjngzjiwjky/D634Zv/xasXIkvwscdsJKUTZGUdT9uM5omEjFv7lZ58LOP2Xu0TtDuEAUB9e1tWtXqiC0cU8SCbMFk5BgmihR56FKHU+/caRgnROKQ6NxZeOfXoVmNS9rWbkJ9Oy5t6wm0Pv4vaXhiOeDliLw81fv32PrgJ2TzOVZeuRL3H08DqtS3d7j/s096bVl7dGu7DUcgAtmZoXQONBgGRUquWoDx0KeTZE1dFbJFuPwVeOkrEPjQbkCnAX4bQh8QsOxuslMOMjlws+z94PdZ+8GfgGVhoWikQ+8YdxqoKvWdXR5+8lmfmKsqtutQWl0mVxrCTPFJRATy5rMxTBbpEXSlanzzKeUo4XVcsEvxRfmov6t2YzkWYXUHuj3F/VabKIwmPhdKVfHbbbbvPSDs+IduTizLJlssYjn2oTGno7qReWaC3kG7khK4KCIMQsLAB4VMId9X9vZcWA7kTEqOYbJIj6Cju7FTZVTd0OVpx0LyNxHCdqt38Q/9AL/ZxM1OfrlSa69Kc7d6SNhEBL/dZv3Tm2zfvU9hYZ7i4nwshJb1TGF90jn2XBnz+/bD/miLRkoYhkTdQS2B7xO248Y0QccnbPuEgU8YBPFQlyiM0yAEcjMznHvj+lNtfSauF2e5m+tJ2klVmUd6BF1k15x6hhMjELX3jU0VaOzskp8rT3TYXVVp15tEQdjrsHZw4EkUhrTrDVq1Opu37uC4Dl4+T3amiFco4OYyOJ6LZdnxWntvsMpRb9h74170QyMFjeI+9FFcMheFIVHQFeogiFvCBkEs0kEQ93/vPi5Z+kh2zkGve//27J8+V69sUd3corS08PwfYG4mrqAwTAPBqA0YFKk5YlV1c1IvvobRErWbSHeMmYhQ395h8cqlkQ1qGQiqcWtVSX5UbNdFLCFodw4NgwGIwohWtUZzr5v5riBWnDhnWVY3ie7oRLooDONPUONRtImXHXeF64py8nkeETE4imeFzY/aBhEZTGZsaelFX8EwObz4tKcxITWCDmyO2gDDZKKd1uPvVWnX6oS+P9mZ7iJx//N9QleYn6W0skStsk1tY5Og4/f+1v/UJAwe/6dRRPgC5XySePUDvuHuhfgVEEXEQiyL4sIc+fnZ53/hKILyislwnw4UqIzaiEExwVesfkTYVFU1i+iGkxJ22r3vRQSNIho7e8wsjt+wluMiIhQX52ns7FLf2iFbyDN/8TyZfI5cqcT8hXM0d3bZW9+gubNHFEZgHT22dFAc9XoHf5f0e4d9wxm6nrrl2Ni2g+25OJ6Lk8lgZ+JBLrbn4rhuPNzFcbHsFyjHU4Xy8vM/3zBppMYZTI2go5iQu+HkqKJ+m/25MWJZ1DYqzCxNrqADeNks5954jSgIetEGEcGyLSzbw11ZorS6TBRGtOt1Wrt7NPeq+M0WgR/smw+vKNJbG3/SWab7Yt3JEgYIKiAqvXVwRLCSUL5tY9k2tudgOS5Od9qa7brYnhv/b9vYTrKO302eOxjGP8ALXQtcL25aZJgGBNgYtRGDIj2CLtYGRJi+MoYTEUVo0D8GQFVpVqtEfojtTuYp0hM01T4x7/sb8bZalpCbKZKbKTLXzTSPumVgoR/E34chGkXx11Hv131dsQQkXnNP1tvFTn62u+vx3d8fleHetfmJdD34vucOmnw5LntMWddAwxNZG7UBg2Iyr1ZHYVEhkg6Qwai64bhEEer3C7qIEPoBrWqN/Fx5YjPd4dme6pF/F4lD164DuVMy7CD7RXykn7fC7GrKipkMT0Xk/qhNGBTp6fsY0QD2Rm2GYbLQKDzkoQNodyqZYcqIIpg/+8LDfgyTgipR9HDUVgyK9Ai6aAiammxFw3DQMEDD8PDvVWnVaoRBakpUDcdBbCgtGzGfJizjoY8jASkqPzAMA429cz28Vioi+I0WnUbTzAzvksxT7zSa+J1Ot8581FYNmEwunglgmBIkwqyhjyGKD7I+ajMME4RCFARPHJnqt1q0a3VyM8Wp99hUldAPevPUxbbxcjkyxTzZYgE3l8Pu9oU/SuWPm4dw8OYpCiOCTgcn48WJdae9HwpzpkPc9KCo7oFsj9qQQZGiI9cKIErNnZZhONjydK1u7OxSWlnCetFhHymgubvH9v2HaBjGlQA7u72sdtu2cHJZssUC2ZkZMsUCbiZzePjL01z6bra7RhHteoPaRoVaZYug7ePmM6y+eo1MPnd6+yGK4g5xYk39DdwUsYnq4SSaCSU9gu5YPmH0KO4zabLcDcfDEiVbKFCr7h4pFI3tXULfx7LtEVg3XkRB2Itm9HqoR4pqgIaC3+7Q3NlD9QEoWLbVbQKTwct62JkMtudiOQ7Wvs86CkNC38dvxkscnVaLsBP0etADRLWA3QcPWX75yultoGXBzLzx0KcJkTVML/cxRDRAWScuRk9TboDhtBAg9CkuzlF79ODIh4RBQHWjwvyFcxM9rGUQZGYK5MozNHeraBj1BPdgfbvs88jDjk/Y8WnXnj2Nra83u3UgIqLdVIfTbMfqZiH3hHG7hnSi+hDojNqMQZEeQc+UQvztTaABlEZtjmESEAh8CvNzTx0QsvNgjbnzZ6dazEWETD7H8tWXaFXrcWe5ao1Oo0HoB7AvMPa0z/KkJDcBXj7PzPLi6YpttmhmoE8XCnIfERNyH0uEXZRdjKAbjksU4GRcssUCzWrtyF7jfrNJvbJNcYJ7uw8CsSwyhTyZQh6NFnojUf1Wqzd7vV2rxxnwGoFavcWvxGt/mqj3RqB2u9FZjkO+NENpdZn8bAnHcU73pio3A9kZ46FPD4LFIxzbCPq4ISJotbINsgNcGLU9hgkh8CFSisuLNKu1Q39OxnFu3XtAYWF+6q/1vbC6bSOWYjs2bsYjXy7Bxe4Y1iCg02rjN5pxiVurRdDuEHYrCqIogigZpQoiFpZjYTsuTjZDplAgW5ohU8jFuQvDqI0TC4rz4GVP/70MY4GiHcF6SGbGrKGPG6oKte0t4tm2JjHOcCwk9FGgMD9L5Zb9xBK2dr1Bc2+XfHmyW8EOkqOiGQCWbZMt5MkW8v192pMpat3v4+Xw/qEt3Qfsf9HhfN6WA3NnT/99DGODIDuoJnqRCtKVPGZZO0BqagoNQyCKb84dzyNTLBz5EBFBw5DqRgVVNY1mnkAy5rTvCxDVx8NbRLC6U9Zsx44nv3XrywX6Hpd8DQXHhbkzw3kvw5ig28QOYGpIl6B7mV1gHTjcy9NgOIrAR1SxbJvCXPmp4d3mzh7temOIxhmGxuwK5EwDoSlCgQqqlTRF3FIj6CICTjYE7pKiMgTDKRPGGdoiQqZYxHKevArVaTRp7OwaLz1tRBGc/9Jw1uoN40QFx91K07mcGkFP0EhvaYo6/xhOmSjoXcgzhRxeIf/Eh6oq1bWNbpmWITV4OVi6NGorDMNEiUDWCWXXeOjjjMhNEWmRokQHwymh2uehO5kM2cLR6+gQR4Fa9TrVjc3+dqaGyUUVzlwDNzNqSwzDROgAtykWU+X8pU7QRa0vMCF3w3EJw96tn4iQny8j1lNOC4XK7XtExktPByJw8Y3T7UBnGDtUtYNyc9R2DJpUCbqIQKm8BjzEeOiGZ6FRN8s9PlREhPxsGcdzn/q00PfZvHVnCAYaTp3ZVSjOjdoKw3BREWlh8emoDRk0qRL0LhHIe0bPDc9EFaL+ggjLcZhZXnxiOD1Zb9tb36C5u2fC7pOMCKxeBfvpN3CGVNJArC9GbcSgSZ2gxxdc/SFqwmeGZ6DRIUFHlfLqylPrn0WEMAjZfvCI0PeNqE8quRmYPweWbcLt04Ui3CJf3kpTQhykUNBVVRB+1O0TZ660hicThYcFHXBzWQrzc08VagHqlW3qWzvAsyeJGcaQ8gqUlkdthWEURPo3pFAfUifoIqIUKh8Bu6O2xTDmRFH8tU+MpdumdPb8mWf2Do7CkK079/FbbcCI+kRhu7ByBVzPeOfTRXKS/gAj6JPCywHKX5PCHWYYIImHfsQFPVsokCnNPN1LF6HdaLDxxZ144IhhMlCFfDkWdHMTNn2oBtjOj0ZtxmmQUkEHRP8MM6DF8DSeEHIXESzHZmZx/pnem4hQ3dhk++59wHjpk4HCla+CmzXe+fShILfIlx6kbf0c0izoqqkMqRgGyBMEHWKhzpVLeNljNBxRZfv+Q6oble6P5rAbWxSYWYhbvRqmlb8kpfM+UinoIqJY9ifABkbUDU9CI9AnC3qmGM/lfpZAiwihH7B15x6tWj1+aSPq44kA13/ReObTjMh/JqXR21QKOgCRNlD92ajNMIwxT/HQASzLorgwj2Xbz3wpEaFVq1O5dZegbRoVjiWqsHgJFs7HPxtRnzYUaCL616M25LRIr6CjTeC9UVthGGOeIegAhflZvHzuWB63iFDb2mL981tEUWS89HHDzcKF18Exme1TzOeorItIKk/O9Aq612ph8QGmr7vhKJIucU8RdBHBsm3mz589/shUhepmhUcff0YUmTGrY4MqLJyD5UtGzKcYhZ8gNEZtx2mRXkHPnI1Q6xZxX3eD4TBRGNehP4Pi8iKZfO5YL5nUsdc2K2zevEUUhkbUR41q7J1festktk83KuhPQVujNuS0SK+gAwh3VLmLSYwzHMUxQu4iggALly88tR3sweeoKruP1tm6e9+I+jhw9hVYujxqKwyjRLUCcoPCXKpGpu4n3YKO/wD0C8B0/TAcJgrjTPdjUJibJTtTPLYwiwhRGLJ97yGb3cYzRtRHgCrMzMOr3449c+OdTyuKyB1VvT1qQ06T1Aq6iEDBbgryAZDaEIvhBQjDY3UKExFsx6G0snRsLz15XhSG7Dx4FK+ph9Hx1+INg8Gy4Y3vQiY/aksMI0dvo2Gq5x6nVtBj5hWRvwIamLC7oQ+FyD+2h053VvpJvPT4aXH4vbpZ4dEnn/VK2oyoD4nLb8Pcavy98c6nmRbKB1Ja2kljh7iElAs6gL4PVEzPZkMfCoTBsXt5iwhePkdhYR6xTnbaJIly1c0Ka5/eNM1nhsXcGbj4JthOStuIGI5Jt/5cUtm/fT+pFnQRgeLcDvADUlp3aHhONIoF/SSIUF5Zws1k0BMGfJLkulpli7VPPqdW2YrNMKI+eFTBycDVb0BxruuZG0WfWhQU3QVS21AmIdWC3kPl33Svv+bqaYhRhcA/0bQtAZyMx/zFc/CcNeZxR7kaj258zvb9h701dSPsA0I1/nr56/E0tRNGUwwpRFCBH4O7nuZwO0yBoIuIEvKfEKqjtsUwTiiEnedaVy2vLpMtzTz3O4sIYcdn4+ZtNm7eJvDjKhoj6gNABM5dh2vvmDVzA4CiKij/lmIx9dVOqRd0AGZn68AfYDx0Q4ISe+gnJLnDX7py+Vg93p/2OqrK9r0HPPr4Uxq7e8ZTHwSLF+GNvxN76UbQDQAiVYT/OGozhsF0CDoA0e+M2gLDGJGE3J+T7EyRmeXFFxJgIRb2+tYOjz7+lK27Dwj9wAj786BAaRmu/zxkckbMDQmK6p9SnF9Le7gdpkfQFeQvidvAmiulISZ4vpB73OPdorSyhJvLvrD4igh+q03l9l0efnwDv9UGTAj+2KiCl4XXvwPlFZBpuawZnokC6L9iSrIip+LI796ZxdnuBgOAaCzoL0CuNENxYf5EzWaeaE63tK2+tcOtH/2E3UdrvZaxRtifgiq4Hrz99+Jw+xR4YYZjo6AVLOdP0zpd7SBTIegA2DRA/wwzfc2QZEKHz38oiAgiwuzZVbwBeOn7XzfSiLUbN3n40afUt3dQ0zb2aFQhX4K3fhlWr5h1c8NhRL6P6u6ozRgW0yPouXkf5H3gPibsbnjBNXToNpvJZVm4PFjPULrRwfrWNms3Pmf98y9oNxqmxG0/qpAvw2u/CGeuGTE3HIWPyPdx3KmpcJoeQQdQPgFujNoMwxigCuFghi4VlxYory6ditD6rTY7j9a59/6HVG7fIwzj6XBTLexKPAb1zV+KxVwsI+aGgyjwANX3yRZO2EFqcpkaQRcRmJl7hPJjRU3YfdqJwpN3insCAixevoh3zJnpJ3ptkXi5v91h89Yd7v7kp9Qq24TBY2GfOnJF+LnfiBvHGDE3HI2CfoRGH4/akGEyNYLeRUH/SJA9TNh9uomCZ85CPw5JQpztusxfPP9CtenPeh8RoV1vcP+Dj3j40Q321jcJ2p3p8dYtK55p/q3fiLPZTZjd8ARUtYPKj5lZeDQN5WoJzqgNGDq2/SPC8AtEFpiSUgbDEYQBaMggDoHkglFcmKO5vcve+sYLv+az3quxvUNzr0pupkhhYY7S8hK26xx6XGoQCy59Ga58FXIlI+SGp6EiVBX9Q4HUd4fbz1QJevciV9O9yr9G9RvdgS3myjCNBJ2BenjJzPSFy+dp7OzgtzunLqoahtS3d2ju7bF9/yGzZ1Ypn1nBduyexz7xwq4Kjgtvfw+Wr3Qnp034NhlOFVVULLkltvPDUdsybE4nPjjGqKrQrt7Csv9bVXVl4q94hhOjCtVNuPfRQJuQiAiW6+DmctQ2K6jqqQtqXL8OoR/Q2N5hb22dKIpws1lErN77T9xhrhqL9+IFeOcfw/zZOOQ+adthGDbaHa73P5Iv//nEHfcvyHRtbRdVFWrb/xfwG0xfHoFBo1jM/+b3Bj6NS7te/+atO2zduX+iaW6DtMF2XYrzc+TnZ8kWC7i57OSIuyqUl+Hca3Dx9TijHYyYG46DAtuIvElh9sHYH+sDZqpC7vtQlP8N4dcAlym9sZleBDrNU9nrydCVuXNn8Jst9tY2hi6gIkIUBOyurVPdrODlc2SLRfLzZfKzZWzHOfT4kZPc+ORm4MIbcTnazEIs4uNgn2FSUJR/JzNzD0ZtyCiYSkEXEbS69R7wPvC1UdtjGAHtBqd1H5esp89fOEen2aK1Vx2JaIoIGkW0qjXatTp76xvYnkthbpbS6jLZmULvBmT/c4aOKlg2XHoLLr8dd3+z7MSg4dtjmFQUCJDoX47akFExlYIOgNg7aPjvga8whbkEU410PfRTJlPIs3DxHGs3Pifo+CPzhJP31SjCb7bYaT5i+/4jvFyG4uICxcUFvHwWy7IQy+qz81Rttp04nL5yFa59I85eT24ujJAbno+/QqxPRm3EqJheQS+UWtS3/xzlAXAeE3afHkSg0zhV0Ug83+LCPMGlDhs3bxOF4cjD24/fXwnaHbbvPWD73gPcbIbsTJHsTBE3l8XJZHA9D9t1EMuKzw4dgMA7mbhla3EOFi7A8uVYyFFTV254UXxV/feRWlPTu/0g0yvoAFjvQ/QucA4j6NOBapzZPgQPPRH18pkVojBi89adkSTJHcXBBLmg3aHaqlDdqGA5No7nPf7KeLi5LF4ui5PxsF0Xy3YQS/a/YPz//u1TJQwC/FYbvxOQfe2beBevQ6Eci7rtEd8lgDn9DC+IAndE5Ad2cXZqO4FOraCLCNpsrhM0/zPwS0Aec1WZHtqtobxNIpizZ1eJAp/K3Qdje5D1QvNhHJrvNJrx7wQsy0KJu9WJJVi2g+3aWLaD5diPO+SpEoUhoR8Q+j5hEBCFEZaXYemNX8I78/IBT3xcPw3DhKGo/oSQ90ZtyCiZWkEHIJtVaq1/i+p/h3Bx1OYYhoRGEAxH0KFbn25bzJ0/h9/uUF3fHNp7vwi98LpCFEbJtwCE+PjN3p/7ZPnQz6qoCP7OZvw3E1Y3DBYFaoj1/zE7uzvNx9dU12CLCBRnb6ro76Eopr/7dBCGEAx/AJPtOiy9dJHi4nyqeq8fvHwe+lkEwpBgdzu+mTIYBs89RP7DqI0YNVMt6F1UVP4XhOG5bIbREvkDG516XBKvwclkWH75Jcqry6kS9WeiSljbJepM7fKm4XRIHLF/RaH8cJq9czCCHl9oAz4C/XcYD3068Dsj8RR7ou55LF25RPnMytSIuqoSNqtEzfqoTTGkjzqe/q+Y67cRdADm5lRV/2eFNuagSD+dZpyYNQIx3T9udemlS5RXl+FAc5c0IiJEjTphozZqUwzpQhX9l3jz69PunYMRdABERBHrI1T/aNS2GIZAuz7SlqKPRd1h+epl5s6dwdo3IS2thI0aYbOW+u00DA0FNsSS/x1TLgEYQe8hYu0K8juqWsV46SlGoFVn1Oe/SFwCZjkOi5cvsnz1JdxsNtViFzaNh24YOL8L1hcSj8Keev5/AAAA///t3XmcZHV97//X53vOqa2rep+VGYaBYRhANjVocl1jEpeHiVnU3Nx7Y2ISNYtJvGbRYBZEr/kZf16Na1yjkSyYQFwIKCCMyiL7AAMOMDDMwqy9d3Wt55zP/aOqmh6YgVm6u6pOf56PBzB011R9q+qc8z7f3QK9pacvQvQWQe5vd1HMAhKBSrFjViRrzevuW7GMVWefSaaQb0zzSmCwa61CNDPVMYvrmK6mqnpIVa/G8+0usckCvakxhW1wO3CTqlpfepJ1UKBD89gTIdtb4JTzzqYwPITzXOJCXaOIcGocjRZ/yqBJHBWRO8STH0kmn6wT5SRYoB8uBr1CRPa3uyBmAVU674Z+dgR8ELDqnI0s37CeTCHf5lLNLy8V4IcVm4tuTlZjIRm4mtzAgXYXppNYoM8hIlAOt6F6FdhCM4mkuijruJ+IVr+6iNC3cgUrN21gYO0pOK97B8y1ug+CXJblG06ntxA0Gke69P2Y9mseOY8Tx9/ErtGHsUB/uuXLI2I+AizZHXsSLY46NtBbWqGezuUYXreWtRedR354kMZy1d1z/VJVxAkDa1ez9vxz6V0+jKuVkNhq6OaEaXNVz89S0wM2Ve1wS3st9yNoHiD7dXr0kyjvQ8TR7iHRZp4ohNVFXyXuRIkIOEjnsqw+dxOl8QlGd+6hOlMibi5d24kXNFXF+R7ZfJ7h9aeS7S089cvKDPV6HS/IIs3KVSe+B9OxVOAR8gP/KAUb2f50FuhHo/JVhP8OnNnuoph5okC13Kild4nWFqwC9Az0k+3rZWZsguLIKJXpIvVy56xYrChBurGvemF4mJ6hAZz3VCOgiBBFIbc/NE6m36O3x6Mv51Ho8ckGctjjjDkCBWqgHwJsZOURWKAfjcR7VfkXQS5BJMBq6V1PAcqNaVPd9GXODTjnHIXhQfKD/VRmZqhMFZkZm6A8OUUcRbOPV9UFC8a5z936czrfQ354kGxfL5l8z+x2qk8vg0N54OEJDqhHNi305nx6ezyGCj6rh1OcMpxiIO83+9mP/BmYJe1WPP+7Nu/8yCzQj0biiqi7BuGXgfPaXRxzYub2OUcI0fQ4QRx3VaDP1Qo28TyyhQKZfJ7elcuJanVmxiaYPniIyvRTq7HNdxC2nldVSWUz5IeHKCwfIshkcJ73VPmO8roqSp9XZl89ZqbiKJZr7B0Fz4HvOXxPGCj4bFyT4ex1WZb1Bbg5r2vBvmSpojMicjnOG213YTqVBfpRSH45Ojq6hYDrETYBVkvvMqqN0TPVUBmbCvnhA9OsHd3Hi4MoEd/k7BKynoeX9UidspKBNauI6nVKk1PMjI5TnS5Sr9XR5k2MatwYYP5cg+tEmlP1m/8Vh+f7pHJZcgN99Az2E2Szx12TFhWGvCLUDw/+WKEWKtV6TKkasedQlRvvnWSo1+fcdTnOWpdlMO+R8h2B9+w3DSaRVJAfIXITmZ7u6TNbZHZGPAtVhenx8xH+E1iPfV5doVWbm6nE7DpU5aEnyjy0q4SGEW/I38UFqV2dtK7M/GnewMwSgTgmrIfUqxXq5SphrUZUrxOHEXEcw9NHnIsgzuE8Dy/w8YKAIJ0myGbw06lGU/rTbgaOJ1hV4Z7qafznzE/gjvGvxao4gRUDAetXZVg7nGJ5f8BAwSfwxII9+RS0CPLn5Ac+Z83tR2c19GfR7IvcyvTYVxC5tPXjdpbJHNncpvV6pDy0s8zWJ0rsOVRjphIhAnlXIycVGlXKBH6NIs98V84RpFME6RTa2/zZnGbzZ8zilTkB3Wo+P8LrnIwhb4oYwREf6dmfwTVf78B4yP6xae4JHEN9Piv6A9avzLDhlDT5rH/YjYaFfNLIA+D+A5t3/qws0J9bjHMfR/UtwBntLow53GF95AqP7atw472TjEyG1MNGYIgIitLjKhRclUSG+TGYfdfP0c+90Aa8GTxObC66iFALlX2jdfaN1nhwZ5lMSth4SpaLz86zoj9oPND63BNBVbVRI5fLyPeN2vf57CzQn0PzAJrWydFLcPI1IMVSTYQO04ryaqgcmqyzecsU25+sNFae0KddzBV6pEqPqySzub2LFKRKRkKqJ335EeqhUg+Vux8tcs+jM6xfmeZF5xZYO5wiEwies1DvZiKiKN+i0H+dNbU/Nwv0Y+XcDaDXA6/DAr3tVJVKPWb3oRoP7Cjx4BMl6qEePpBrDifQ50rkpNaO4po5hJh+N8OBuG9en1VRHt9f4bF9FVYNBZyzLsf6lRlWDQY2kK47Keg+RD7Y7oJ0Cwv0Y+W5KaLoK8ALgJVYqC+62eZ1gR0Hqtzz6Aw79lWYKkWzy6Ue5W/iETHsTTebeu2raxeRRmv4cn+SA7X5DHRofa8isH8s5MDYJFsKM6xdlua89TnWr0rjz1ns2sK9oykQonI5Ij+22vmxsUA/VtneiOLIDai3GeHNNNbBtyvCIpgb5KPTETfeM8GjeyvUajHKsY1y9og5xR/vqG1Tly7HCm+C+3TdMY90PxGKMDoVMj4dsm1PmTXDKV5+QR+nLks1p/At3OI7Zh4oD+G4Ej/b2ZsvdBAL9GPUHPE+yfT4F1T1lSKyot1lWgpUlVihWI24b3uJW7ZOU65Fz+wjf9bngLSrs8KbWODSmmOhwHJvcfY+agyIhEo15rEnKzy+t8o567K84sJe+vM+Kc9q6h1IQas49w16+u+x2vmxs0A/DiKC7tjxAxnqvUJV/1BaHbZmQcSqTBRDtu+tcNcjRfaN1o/aR/5sROAUf5yc1DjCxC6zyARlwJXwJSZepA0fZ5eqBbY+UWL73goXntHD89bnOGU4wHvWLhuzqBQQeYhYvywitojMcbBAP06yfn2kU2MfFuFngHPaXZ6kaTWvh7Gy9YkSW7aX2HWwShSfaE1KiVQ4N70bu/fqHJnmmgBFzbLY34uIUK0rd2ybZvveCpvWZnnROXn6skdef94sKkUIVfmgFAZ2tbsw3cYC/UQUBvYzM/4elCuxaWzzYm4/+f7xOtfePsGTo7XZueQn/sSQlpCNwb55KaeZD4JPzIArUYxybSuFIoxM1rltOuTHu0q86qI+zl6Xw7NtXdumMe+cfxFJXd3usnSjxWnvShgRUWJuVtWvwwmukGFmtfrJJ0oRN9wzyeevPsATByrU6vMzIn1jsI803bEH+lIg0hikOOhNt33ZLxEhVhidCrnq5jGuvWOcyVJEY7n7dpduyVFBdhHxASkU6nZDdfyshn6iCgNTMjPxJVRfDGzAaunHbe6a69v2lLnr4SJ7R2uzA97m53xWLko/Djgb4N5BPFEG3AzNL7vdxWns1R4rd2wr8uRIjZec38uZqzKkfKupLxIFijg+ge/taXdhupXV0E9QcwWjO4B/U6W1QLg5BqqKqhKp8siTZb5x2xjX3j7OkyM1OMZpaMf4Sqz0Jlllo9s7jkfMkFckJWG7izJH49h7cqTGt28ZY/N9U0yXo9nj1SwYpdHSeQu4q8j2VdtdoG5lgX4y8v1lcJ8WYTuNg9LO+ufQujBWQ+W6uye56odjPLyrTD1aiL274azUXnKuk0LDQGOk+7A3zYA3Q6edNiJCuabc9tA037x1nGK10atmob6gJoF/wM/sbndBupkF+kkQEcj3HUT4E6DS7vJ0OlWlFimPH6jyD98+wG0PTlOqxgvUpKn0uxLrg4N4xJ3QqmvmEBGWualG60mH5mSs8MieMl+69iAHp8Ln3ELenJBW7fwq8gPfkkwmti6OE2eBfpJEROkZuB74NBDSsZen9lFVoljZP17n+rsn+efrDzE2VX+O5VpP+kU5NRix5vYOFkjEBamd5Fy1Y2u/IsLoZJ1/vuEQj+ytEEaxBfv8ux/134ddO0+aBfq8cZ8AvbndpegkT/WVwz3bZ/jGLWPcua1IYybawt2FqyppiTgvtYuM1K123rGEdcEhLkjvRBuLsba7QEckIkwUQ75zxziP7KkQW5/6fFFgBI3fS6Fw0GrmJ88CfR40DsR4L/AJlP106pVpEbUueJOliCs2j3DtHeONEewL/8oIsD44yIZgv41Q7mAi4BPz05kHOS042Kz5duqpI4xNh1z9o3GeHG3s2GehflKURq/GF1D9oZ2n88MCfb7kB2I8uQ6R/wDqdO6VaUG1auVhrDy6t8I/XX+IbbvKza1NF/6kVYW01Hlt7p7ZBUJMJxNSEvIrPbezyp9ofIEd+70JxUrE5dcf4sCkDbQ8SQrcIvA1eodt85V5YoE+T0QEsgMlhE8C9zV/3KlXpgUxt1Z+89ZprvrBKIcmFriv/GlSEvJzufvoc2VsaYDO11qbv89VeH3P3awLRjo+1Cu1mCt/MMLBybrV0k+MAmPAZ8gPPGy18/ljgT6PRAR6+h8FLlGYand5FktrVS0Fdh6s8u3bxtm8ZZJSbfG3p1zlTXJ26knkODdwMe0jAk5gjTfO63P3NPrUGwcVHRnsIhwcr/OD+6eYrkQW6sdHm814X0Wjb9GRX3D3skBfCF7mJkH+uvl/iT5gVRWaS7c+tKvMVTeP8eiecrMne/GlXR2HWph3ISew3Jvidbl7eWP+dgquTOPw6rxTSBEe2lnmxzvLxB1axo4lchuql1IYLlvtfH5ZoM8zEUFyuQj0a8CVQOK3/6tGyp2PFLnyB6OMT4cdsZSn6VZCRkLOT+3ibUM3c+HQNF6HXqWiGG7eOsVEsdGfbpn+nBTYA/Hv0js0Y2E+/zr0VEmA/MAEyMeAbSRsA5dWE3uMMlYMue6uCf7rR+NE0eI3sR+xcKZribRmjQh90TjnZPYRSOeePhPFiM33TxF39Aj9jqDAOPBh1HtEROzDWgC2OcvCUYjvQuVTCH8HFOjSUVqHNSeKUKnHbN9bZPveMiMTyp5D9fYHeVNo96iJIAKqQjoqdXTVVwQeeLzExlMznLkqSzolNNP9aY/rjPOjTRQIUb6N575Orq/W7gIllQX6AhERVLVGcfyrCC9A+S0aLSJdcWa3QlwVxAlhpGzdNc3mLYe469EJZioxG1cPkfb9jrpYqYrVkxJDSMUlOrvm29il7V9uOMCe0QnWr8xx0Rl9nHt6L6cuy5IKHBIpcfzUuI5OOl8WQWtk4w48uYxc36El9v4XlQX6AmoeuBVVfRfF8YuA57d+1b5SHV2j1bCxC1qlFjNTjXh8f4kf3D/CzQ+OMTZdxxMhnfK48LTlpP3OO3yi7rlnMs9FIB2VcF3QYyU4imVl8/2j3LjlEKrQ2xOwcXUPF53Zz7nrezllMEM27ZH2hJQveK5xnC6BgCuC/h65gR1L4L22VeddkRNIREo6MfZ2PL0c5Ox2l2cuVQWBOIbR6Rq7R8rsPFjmwSemuf/xSQ5M1FBt1C48gZ5MwKY1Q2RSjUOns05QJcKhHV2jM8cjFZeR5kynzjrWDuc5x/K+HiZmqqgKzgkzlYh7H5/krkcnEQd9OZ9Tl+c4fXWOdctzrBzIsKwvxXBvioG83wh4bYV8m9/Q/FBgGvgrKQzd2O7CLAUW6IvFYyvK3yF8CFhFm6qRs03pNEowVqyz9Ykp7nt8ih37S+wZKTMyWSOKn7qANrsPyKUDzljZT08mmP15pwkbk9baXQwzDwRIEXX8bnmt86O/J01vNsVYce7Gi4LnNf40XY54cOc0D+yYxDlHPusxXEgx2JdiZX+atcuzbFjVw/pVPQwXAsQ9vT++q9ZWUKCOcjme95V2F2apsEBfJFIYrOvM1L8ThxcAvw+kWKRQnzuoTUWoRzH3bJ/kursP8sCOaYrlOtV6TDSnZXNuWKsqnnOcuqxAfz6D0JlhDhCphyIdX6Mzx8aXiECizu5Gp3E+pHyPoUKWyVL1SOPiZjnXGLhZLEdMl0rsOFDGOQg8wfccqUBYOZDh/PW9vGBjP+ecWqDQ40MMGh++xkKHHuOtd38roh8jdtNtLc0SYoG+mHKFEpXxDxDqBcArmnm+YGdkY2oZVGsxM/WIXfvLfG/LIX5w/whjxTqeO/YlWZf35VjZnwc69iICQCh+o4bewWU0x84nxu+ipRxW9PewZ2yacjU8pvOk9RhVqIVKLYwoVWGiWOTHu6b5l5v2kAoc65ZneeGZ/Vy4oZ/1K3PkMh4Zz3ViX3wrzHejfIDC4PYOKdeSYIG+iJpNc+MUJ94B+nXgQhonwLwc8a1BbYhQrkXsHqnwxP4SD+6a4p5HJtk9Um6Otm3UBI7pOVXJZ1KcsbJ/9j10LiFyAYhNXUuStHTHRiit82rNUC+P7h2bp+cT4hh27C/x2L4SV3x/Lz0Zn3XLM5y5Js/6lTlWDGRY2Z9muDdFIec3FuJp9qm16XSdBC6V3kHrN19kFuiLrBnqj1Gc+GPQzwNnnczzze0TjxSeHClz5yOTPLhziif2l9g7WqFciw7rDz8enhNOX9F/zDcA7RbhgfM7vonWHCsl7eoQate0uqzs72HP6NQx19KPjeAa6+1QrkVs2zPDQ7uKeJ5QyHos60sz3Jdm9VCG01fmOGttnjXDWXJpD2nus9C8Aizkx6hABeFvKUdfW7BXMUdlgd4GIqI6M3krcfQh4GPAIMdRS587RxwnVGoRtzw0xrV3HOCxfTOUqhHV+lOJdqIXFVVluLeH3p7UST3PYgpjQZ2/BBbcXRpUICO1rpqJ6Dlh3bI+tu0ZXdDXcU5QhalSxFSpxPa9M3iekPIcvi/05XzOPCXPxZsGuHBDHysHMngCcbQgc+IVRRG+hLjPybLB7mhWSRgL9HbJ9UaUSv9OXD0b+GMgy3Nctlo7mtXqMcV6xK4DZa676yA33T/KdLmO37qFnyeB51jel8N3rmtqRzGOyEtZoCeEKOSkRrckemvE+1AhQ086oFRbvFwTaTTPV+IYrSnFcsSToxW+t+UQIKwezPD8M/v4iU0DbDolTy7b6IdPBw53cgGvQIxwA8jfk+ubnL93ZY6HBXqbzC46Mz36EZDVwK+3fjX3cdpcIzpW2D9e5fH9M2zdNc2d28Z5fF9pdnqZ7+a3SVxV6ctl6M2lnlmoDhYrhC7T7mKYeSPkpNYaGtI1fOdYMZBnx4GJtrz+U8HcaKoXEQ5MVLnmjgNcffsBcmmP01Zk2bi2wIZVOVYOZlg1kGZZb4psxkfQY50T31oJbivo+8kP2CC4NrJAb7f84DjTE5dA3IfIGwBVbZxJKjBTi9i6Y4rbt03wyJNFdh0sMTkTnnCf+LFoTFMThnpzBL7XFU3tLXGs1L3MPA41NO2Wc1W66ctsnS8DPWkOpHxmqu3d62Dua4sInkC1HvPwnhl+vLuI54SBnoDlA2mWD6RZuyzL2WvynLkmz7LeFF5jYf0jPl/TfuBPyA/+qJuuFUlkgd5mzSa6vUyPvwulX1Vfhi+MTtbk6jsOcNOWEQ5OVCnXIuL4qb+z0NKBz/LebHdVi2jcjNS8DJboyZGTGjGC10UjHUWEfCZFX0+aUrXe7uIclZNGP/xYsc5Ysc623UV8D1K+RzrlWDOc5eKNfVx89iBnrOoh8GS2D15EFGUCx++gwU3YUNS2s0DvAM2A3lkZH/mLLTumPv+Nm/eee9u2ccJQ5antJBfX6oE8vt8dI9sPp1Rclq5rozVHIaRdtd2FOCEisLyvh4NTZcIw6pqWrjCCMIqYqUZMTNe5/7FJPnfNLoZ7A56/oZ8XP2+Q560taH8+mOxJu0tEuUEKhc5fcH8JsEDvIC9967fv8JcNXOY591ERWevc4l8AVJWU77FyMN+dmahQlYzVFRIkI92626bQl0vTl00xOl1ud2GOm9Bs53KCD0zMhHxvywjX3XtIe7N++QUb+z77W69b/29nnLaqc5sglphurIIl1p3feGuc8arfFOHPUca1TbG0ejDfHDHffRSoStY2aEmQrNS68tuU5oKFpy7r7Zra+XMRQT0nCvKVx/aVP77hq5+fSMp7SwIL9A5z0z/8al1c/B8q+g6BIosc6r7nWNnfA3THvPOnE6BM0Nihq92FMfMi3dxyp1ubXfpyafp70oftqdClVFU1n/Euz2f891zxwVcd5NJL210mM4cFegf6wWd+MapNHvoWqn8JOqWLlE0KDBcaI9u7lQhMxn4X9hWYo0lLY8e1bnbasr6uvEF+iqqi9XTgviHwx1d++GeLNui081igd6g7/vW3ap7v/RMin0B0ZjGa330nDBYyx7VpSycqRT647r0pMXMpQaEfz5vfRZMWS+s8ymeCLq6lqwJh4LnrMyn/fdd87LXtmVxvnpMFescSNi+7c0L8+O89kU81rgQLezXIpQMK2dRCvsSCE4FK6IFv4z27mdKoE9b7l1O+4OX4QfdeqkQE11x1sR0DXU+SqqKek9vyae+STbLz4W6+2U86q8Z0ss2b2fm6TeU19eEfSeg74CWNc2lhzqhlvVlW9Pd0de0cIJ31+Qn/YQjDLqzTmdaugfW+ZUxd8HJqQyt44JEKtVo31m6f4jlhslylWu+aKWyqiqYD92Am596Y3nHD9i9/+X3d/SUknFVjOt2ll3ILzLz8t//zb10mKNRD/R0R0sxz+2NjZbjsfD5lmwjVGmg2g1Qq7S6MOU6qCuKo9w0z+fxXERYG8ZyQ8mcnUbW7iCdERMilA/pzaYrlrpiGpygR6D0x0a9e+5Ff3EO3jkpcQrq3HWuJ+f7a+6YrYfS3wD+qUmWeT65syqcvl07EYLJaLaY6sBKwK1A3abTt+lRWn8HEi15HWBhs/hwyGUe3hvlcy/t6CDyv0/vSm2HOrQLv3HP/TbuwU6krWJN7t9i8mT0/v2n6lOLKez2RHpSLEWU+Elhj5bTlffTm0t3SFPjsVDnvp9bilWfwi+Ogmoz3lVCtJvY4laW04UKKmy4mTmcRkeY/yo5dNcYnu38LvVTgMV2uUWrz+u5Hp61NHe8WeNfUvkfvfui6y7p7isESYoHeTZqhvurA8M3ZnB+Ekf5k86JwwlcGVcXzhLPXDOGku0e3t6gqFzx/gGhoJV5pGn9mYnYp2O5/d8mize8lTmWZuuDllE/dBH7wjOPwyX11Do50aggem1bZc2mfJ0eLh/2sM6iiaOC5+zw/etPeB2/cZmHeXSzQu83mzTx5/9drq178K7cF6qdVuUgFX04i1FcN5FnelwM67QJzYuIYLjgni8umqa1Yh1+awitNIXGciPeXFAqo8wj7lzP+Uz9PfWAV0lpebe7jFPaPhOw70N2B3pIJfCZKVSq1sJPej6LUncgtxN6vbP7sz+8Z23m7NbN3GetD71K3fuKBosbR33mOTwhMn+g8deccqwZa67Z3zMXlpKhCra6Ntaj9gMnn/wzFjS8kyhasI7BDqEKUzTNz5vMZ/8mfJ8oWGntwH+UYzKZlgSdtLg4RIVbl1OFeXOecb6pKXUS+43u8s7jjq/uwPvOuZIHetS7l+6u2HPLE+4jvyQcEyicS6r3ZFNlU8iY7VCuNj6JV4yttuJCp819GvX/F7Bxns7han7vGSnXFqUxe8EpmNlyEtprYjxJwqpBOJ+tSVcim6M11xEIziqo6xzd9z/3ZOW7ywbuuu6LthTInxprcu9nmzey48/Ly6RfsuVv8cDvwMwrp42l+Xz2Yp78njXPJuGCqKqpw+mlp+nu9OUEhhD191Fasw1VLBJMj1qe+iFrBFacyTJ33EmY2/gRhYQDxvOcc16kKxZmYRx+vJqMVSQTXrKmPF9s5tVJVFVKe+ydx8s6bPv36J++446o2lsecrGRcxZc04cYvvqqa7XFf9538oYO9qhpzDLX1lO/ozaaScZFsaoyKhlI5fvovEOeIMj1MvuDnmHzhzxFl8mijodcskNlauZ+isnI9Yy/5JcrrziEOUsd1M5VOJegYbf7Tl0uRS7endazRmiflwHOf0bj8Rzd9+vW2nGsCWKAnxLUfeV3Y6+kVnpP3OpHtzaknR80qVaUnkyKXDhaxlIujFehHuk8REdCY8ikbmHjR6yiv3UQcZGjN1THzpzGvPKC6bC2T57+MyRf+HGF+oBFoz9LE/nQi4PuCJOxqlUsHjbUfFvnIU1BBJ3zHx1NpueymlQ9OL2oBzIKxJvcE2Xb7v0bnPP81D6mXfQDh7Fh19dGmtTknrOjLMVTIJqqGDo2wGOz3WLcmfdTfiwhROkttaDVh3zJcWMefmbLpbSdJ5/ypNrSamY3PZ+aMi6gPrpr93E9k6YR6qDz4cHJW/pPmMeZEGJkuL9aAP1XACeO+k0uyQfy57/TfPWZboCaHBXrCPHr3f8Y/ff5Ldk4G/TcBZ8fo6SA8vV/dc471K/pIB17iAh2UQo/HmadnnvVRIgLOI8z3U1txKmHvEMHUKK5WaT3Agv0YtRaHQZUo18vU+S9jZuMLqPevgCB1wkHeEobw4MMV4gQ1o4gI6cBnbLpMpb7gU9hUVdU52R94/m9kAr3ymr//hTKbNy/ka5pFZoGeQPfeew077vzn8bN+6rGbY9VTUT1dEa8V6qpKPpvitOXdvkfz0Qi5nOOsM45hyftmaKvnE/YOUVm7CfU8/JlJiCNALdSfRSvI1Q+I8gMUz34RUxe+krBvGPV8xLl5WU64HioPPVoh6v7F4p7B9zwOTZaABZs6qqrEnpOt2bT3u7VDt3/vhi++I4GfpLFAT6z389hrNkycHa39fhRrBuVcoLU3qqxb3kchYQPi5kqnhHM2HmN3QmuJUUA9j9qyNVRWn4EGqcZiNPVyY7Uaq7HPalWUo2yB2rJTKJ1+AcVzXkxtcNXs5zSfx1YUKdserVCvz9tTdoxcyufQVIl6NP8LHzX7y9X33A2ZwP2p/vihm2/8pu2YllR2fVoCfvad3+2px7W3xMp7YuVU3wkv3rhafM8lNtD7Co7//ouDeN4Jvj9VVBW/NEUwfoD0/h2kDu7GhbVGjXOJrQ8/mwDNMQb1vmVUVq6nPrSKet8wGqQRPfrCMCf12qpUa8pV/zXBxFSyKpat6Xz7xos8/OTYfB5Tjf5yKPu+fCkI3N9/92Ove2y+ntx0puStKGKe4fpPvXrmFW/9wheD/OrH62H88eHe7MbA81A0sYkUhkoY6YkHerPWHvb0Efb0UVl5Gl5pmuzubWR3/RhXq6JLINhngzyO0SBFddXplNadQ1gYRL0AmusXNIZeLszn0Ph8lSBI3ucsIqgqQ4UsmZRPtT4vNyzNJfJ10vfd36Yk/bnv9N0yOR9PbDpb8s4Q8yyUV/3Btc8//7Rln+3JpC4S8EloK3ImLbz5FwbI98xTr1JrWpsIEoVk9j5Gdtc2/OlRJAqRKExEuM8ObhNBPb85tmCQ8pqzqK5cT5zKNN5n6y8s0vut1iKuvXGKvfvDRXm9xaSqxKo8cWCKXSOTJ3sMaXPX+N25tHfpKat7v/bl97wkeR+aOSKroS8pwvc+pff89Je3vaFWqX0gjvWXUAa7PoWOQBWqtZienDc/mdPqP1cF51Fes5HKKWfiFcdJj+zBHz+IX5zEK081Rsl3UbgrjdHp6gXEmR6ibIEw30d9YAX1wdVEPb0ogqAL1qz+3IRU4Gjbyy8gEcEB/fk0+yc86tEJb3CmoHXPuVt7Ut4Hrvn4a2+cx2KaLmCBvtSI8D7Yf+kn7vhT8dJbVPlTlFObNfXEXCpVoVrV+b/4N5+w9bRRYZCZ3iEkquOVinilKfziBP7kCMHEIbzSJBLWQOaM9l7kue46++85r9+8MYkyPYS9g9T7honyA0S5XqJcgTidQ1tlnC1r+w4PgUQ2uc+Vz6QoZFOMHf9ysK2ekenAc5fn0nzs6v/7mu3zXDzTBSzQl6hL/+jiyUu+uPUL6SjaGtX5fKxsaO52lZCrplKpLvBWznPD3QuICgNE+X5qw2sgjpA4wtUq+NNjBKN7SY0fwC+OI7UqaIzKEaZ0nWDY69GqrhrPPmccpIl6+qn3L6M+uJKwd4gonQPPa5TF85/5vjpIKsGBLiKkfMdAT4bxmcrxLDTTvDuTYjpwf5UJ4q+M7bh7Gl6/gKU1nSq5Z4g5VvKBz9wzHOG+HMW8AuhJQqOm78NLX5Tn7DOzbSuDtvqaVVHnAEHiEKmUCIoT+FOjeMVxvNI0rlbG1asQRY3V5Vu16MYzHeHZm1+RNFYXUBqL5OD5xKkMUTrXqG3n+wnzA4T5PjSVRZ3XeD6Nm43oCzugbb7U6zF3bilx79Zypxf1hKkqlXrEvY8doBoey0IzqkBdRHYM5oLf/8ZHX2NN7EtcQk8Nc5zk7y9/uGdssvpOVX1brKxrdut17fHhefCii3q48HlZOuZt6FON38DsLnCtSpZEIRLWkbCOi+oQhUjUqOk/PdTVeY1wbg5cUz+F+j7qBbM3D7N/p/m6iz2QbT6FoXLv1hJ33DuTnEakI1BVHt47xr7xmec6ahUY9z35dibwLrv246/ZAWLzy5c4a3I3APrH/2tj8W8+cd8nnO/uJda/UOWlAN06Cr41KK6jHLEpW5/6nR80wjmdJZ594LN9/Hp4zh/2/PqMn3ez1gYtS8HaoV72j880Wnie+d2pKniOPb7nPpxOe1+/+EVrDl378aXx2Zhnl7D9i8yJE97/RxeWdj1+z/Wgb3SOjyHUeI5d2zqVKtRqulibXsyf1prns7X3Z33w0x6fXCLgewka4vEscpmAwZ5n7kPQnIuggS+39qT91/nh1Beu+eirD1365ue1oZSmEyX/7DAn5NP/vi04NFJ9YxTx16AbQDy67Hg564w0r/hvBTzXVcU2R6CqbNteZfOt0913k3YcWivHjc9UuW/HgdYNjKqiThhL+e4rqcC9/5qPvXaGLrzRNgvLaujmiP7gTZvq09t/dIXv5NdF5Apguptq66qNDT3iqCuKa46B50HS781aLRD5TEAhl0IbCR/5jpvTKXlnbybz19d87DVFuuQ8NIvLAt0c1Uc/+o74b37/vLsygfeHTvR/I9zXHGHVFcEehkoYdnwxzTHyPXBJT3Qaoe470WWFnDonhzyR/y8beO9wpz3y9av+/1eVu6yhzCwiC3TzHIRL3v68cXF8VUT+h4h8XZV6a5HQdpfu6JR6cz13kwyeJ7jk7w+pqKoTiVf057Ys683+OmHxQ9d+4rXbvvvud9vBbJ6V3eqZ43LpP97kUx16axzqX6qyEiGgQ4+jZUMer3ppL4P9Npmj26kqe/bV+d4PpymVO2z2wvxRIAYmPceVaZ+//Iu3n3+wQ08v04HsSDEnQOWyz205Kwrd/46V16uysjlvvaP09zle9dJeVgwH7S6KmQd7D9S48YfTTBUTGOiNBfWLInJz4Mnn/tdrCt9av3691cjNcem4i7DpBqLXfuX3t6V87z2eyB86x+bGWqbaUX3rYUizD71jimROgu/JiW+H27lUlVhEdzonfyMS/d6eHeG3LczNiUh+j5RZEHv27OHGqz9dOeeCmx9JZ3uu9v3UHoUXqtLTKUuBi8Bpa1L09XpLYv5y0lUqMTt21yhXEpF12lx3t+57crnz9LcrM5Pf+z/v+tzY3bf8XiLeoFl81rloToLwmb8lAkYu/cebPu3X+jfHobssjnklaF9zsZO2JWkYNQbGmWRwyaihN7ec16oTedDz5IPjh3b818f/+g31dhfMdL+uPztMB1Hlbz57d4+o/8sx8hZVLkYptGvvTRF4xU/m2XRmxmroCTA1HfG9H06x72DY7qKcKAVCER5yyDd8T778l7/70d3wFbvrNPPCauhm/ojwfpgBvvbBzz+wuV6PX6/wtlg5T8Bb7HXh41ip1rW1e6jpcp5Ht9bQFUVF2OecXO58rlwbFO5561vXR+0umEkWGxRnFsT73va83WHN/yIqb/B9+aAIRV30QXNCtarECRwUvRR14aA41ebqir7H1Sk/foNo9f0j63vutDA3C8Fq6GZBNJu468Bu0Ms+8Pn7vhrW5bJYeQ2qg4gs+Pasqkq1GhPr7K7fpos5B57jaLuQdRJt7IOnM56Trdm0+8B7fyf/HVgPNuXCLCCroZtFIPpXb7/wCc/V3uF78hYRuUJgLwu8hKyIUK7Eid7MYylxDjxfOjnMtTmffMYJN6U89958JviF9/z2866F9TZ/0iy4jj0zTBI1rmf/59OP9te0/FMIvxIrb0AZaPavz/vxuHplwGtfWSCVcp0cBOYYxLHy/Vun+fH2aruL8nSNIBdqnuM25+RyT9xmfyLa8Z73nK92mTWLxY400wbKO//yMSkMVPLZXHR+GOmfKrwBFeZ7RPxAv8cvvbafdKqja3bmGKgqN99RZOu2Sqe0ujTq46CeY7vnyQdUvesLvcHIu//nmZFdXs1isz500wbCpz6IAtOgtwK//KHPP/BTlbpeosqLQPsVcTIPV8RqNSaOrQ89CUQaA+NEaHegq4IKzIjTJ3Ip7x9Oy/d/6dd+bU0NpDNuNcySZH3ops1EQfSSt593awp9c+DzFifyNYFHgfBk92Cv1ZSwa6ctm6cL/EWe+3g4BVSEESd8J+XJe/sKwau33v/5z/7ar62tWpibdrNqi+kw/8gHP7mpJ/JzF8WqP6sqb4pjNgq4E22Of/Mv9DM04FuTewJsebDEHfeUFnNb3ObKbqgTRj0n1yB8M5NytweTe/a9+92vtj5y0zHsSDQd6UNfvZ24mk7HBMtF49eHYfyuOGbDnFA/pmM3jpVffE0/p6wKLNAT4MGHy9x658xiLOnbXDYB9ZyUAo+vOM99qTzjPS6RN33Zn5xltXHTcewKZ7qBfPhLD6TCUN9UC/UdsXI2Si8yOwbkqMdxHCs/+/Jezlyfxjk73Lvdo49X2HzrNPWF60ZpdfHMiPBkypcr87nUp97162ftB8Sa1U0nsyuc6RIKIB/5wv091VBeWlf9BVV+AmWTKrmjNcfHsfLiF/TwgvNzVkNPgCd2V7n++1PzHeitnc9Cgd0i3Ot57vpcEF+zc8sX93zyk5+0EDddwUa5my4hAPpnb6MIXPuRf3noe9WpcFOkXKyqPxvH/Fys9MrhY6ZEBKaLMc61fWS0OUmqEASt6Ycn/WXq7L+F0PO4S4SrPeHWlFe+78/ftmK8ubKbMV3Dqiymiynv/fA1Xr53TT5ystrBr4ZR/JYoklOblXEHyJpVAb/4mn6iuOOXDDXPQhVGxup867uTVGsnHOhKY78enGPK97gmCOTz5ZI8VOhhcl1eam9+8/PmsdTGLB67upkE+U357D9/MDteHn91va6/GUbxC1H6+vv97P/85UGJYxUL9O42MRly5X9NHG+gt2rjNYQpJ+xOBe5fs+nginf/xqbdNK6D1n5jup5d3UwSyXs/+GM3sLJ2VjWUn0mn5b/9xpuGzo5V1wvS06792c3JmylFXPHNcSrV58zfp/rFhb3ANk+4J/DcDX0Zue0PfuPccuNhdhiY5LCj2STepy5/uO9Nb+g9U9FzgZcovAwOmwLXYudDh6tUY/7tG2OUys8I9Nk+cQV1jnHnuEWQH4jIloyv2/rj4v63v/3hCH4T+6pNEtlRbZaARlVtYuaQq8VRLhYtEHOeir4ReJ2iK0VEUMRq750tDGP+9RtjTBcbc8SbX22sqs45KfpObvV9+XcNuakazowHEhefuHdt/UtfWtvmkhuz8GyUu1kCGvnc37MsBopAUVX3A9ftnd7bE4h7caT6KwgvU9XlIpIDMjy1NLIFfIdwzqnvHBDVaMwVn/Y92eI7+WYq7333ur3X7Lvuz95Ic7tSY5YUu1AZA6iqHJw+WFCi81V4kaIXAqeJyKmqukpE5t782nmzOHTOn2JFJ0Rk11VXT+wcGQ8f8hx35jPuzr07evf93aVr48YD7asxS5cd/cY06ZyJ6iNTuzKhS60FXaeip4tyPsgFiJ6jSj8gIqLWTD9vdM5/RVVVkCrwOLAF4X6Bhx3svPVHpV0XnOGNrV9v88SNmcsuQsYcwdxwHy2PelFUzyhk8eiXSM+L0ZeKyEtj1XNoNM83Av6pc8rOrWfX7ARHWx+UqkYishvlR6Dfx7k7nHIgVp3xXVAZzg3XoLGNqn28xjyTnRXGHCdVbc1bloOTBwdjL74QjX8SkYsVPUtE8qqaFZEUShrBa/7VpXq+te6OYlWtiUhNVStAGdgtyr2o3uJ73p2U/d3Dw8Mhzc+qeZNkjDkGS/UCY8y8aNbkZwN+snIgX4lZh8YbUDaocJoqq0CHgCFEBkTpR8g2n+JI52A3nZdHDlylruikiIwDI8AYqoeAnYI8LiKPiOoOqQSjw8PDcet5bOEfY06cnT3GzCN92oLxBznoMVMviHqDkeggyhBCP7AK1VXAKkROAVYAy4B+mrNPFBVBUFVERFXh6WvVL9TbOOzfMtsqgSAoqiJCYwlVLQpySNGDguwF9iKyD3Sfqo46ZBzVEU9kXFw4MZRbW5v7QhbgxswfO5uMWWBPD3mAQzMHfYiDWDUQkZQ2QjxQ1QKwklhXi8cqVU4BVonIslh1mYgMNW8KAhYw0FU1BiaAMUEOiXBIVQ8gbi+w14nu1Vj3xcqYc66Gah2ooRL6qaBeTpfra1gzW+tufQYW4MYsHDu7jDHGmASwQDfGGGMSwALdGGOMSQALdGOMMSYBLNCNMcaYBLBAN8YYYxLAAt0YY4xJAAt0Y4wxJgEs0I0xxpgEsEA3xhhjEsAC3RhjjEkAC3RjjDEmASzQjTHGmASwQDfGGGMSwALdGGOMSQALdGOMMSYBLNCNMcaYBLBAN8YYYxLAAt0YY4xJAAt0Y4wxJgEs0I0xxpgEsEA3xhhjEsAC3RhjjEkAC3RjjDEmASzQjTHGmASwQDfGGGMSwALdGGOMSQALdGOMMSYBLNCNMcaYBLBAN8YYYxLAAt0YY4xJAAt0Y4wxJgEs0I0xxpgEsEA3xhhjEsAC3RhjjEkAC3RjjDEmASzQjTHGmASwQDfGGGMSwALdGGOMSQALdGOMMSYBLNCNMcaYBLBAN8YYYxLAAt0YY4xJAAt0Y4wxJgEs0I0xxpgEsEA3xhhjEsAC3RhjjEkAC3RjjDEmASzQjTHGmASwQDfGGGMS4P8BTbexOe+tNT8AAAAASUVORK5CYII=;clipPath=inset(8.33% 10% 8% 7.67%);" vertex="1" parent="1">
          <mxGeometry x="100" y="260" width="147.60956175298804" height="150" as="geometry" />
        </mxCell>
        <mxCell id="1VdBIYyeLSir0RV5_wH--5" style="edgeStyle=orthogonalEdgeStyle;rounded=0;orthogonalLoop=1;jettySize=auto;html=1;exitX=1;exitY=0.5;exitDx=0;exitDy=0;entryX=0;entryY=0.5;entryDx=0;entryDy=0;" edge="1" parent="1" source="1VdBIYyeLSir0RV5_wH--3" target="1VdBIYyeLSir0RV5_wH--6">
          <mxGeometry relative="1" as="geometry">
            <mxPoint x="490" y="210" as="targetPoint" />
          </mxGeometry>
        </mxCell>
        <mxCell id="1VdBIYyeLSir0RV5_wH--7" style="edgeStyle=orthogonalEdgeStyle;rounded=0;orthogonalLoop=1;jettySize=auto;html=1;exitX=1;exitY=0.5;exitDx=0;exitDy=0;entryX=0;entryY=0.5;entryDx=0;entryDy=0;" edge="1" parent="1" source="1VdBIYyeLSir0RV5_wH--3" target="1VdBIYyeLSir0RV5_wH--12">
          <mxGeometry relative="1" as="geometry">
            <mxPoint x="490" y="460" as="targetPoint" />
          </mxGeometry>
        </mxCell>
        <mxCell id="1VdBIYyeLSir0RV5_wH--8" style="edgeStyle=orthogonalEdgeStyle;rounded=0;orthogonalLoop=1;jettySize=auto;html=1;exitX=1;exitY=0.5;exitDx=0;exitDy=0;entryX=0;entryY=0.5;entryDx=0;entryDy=0;" edge="1" parent="1" source="1VdBIYyeLSir0RV5_wH--3" target="1VdBIYyeLSir0RV5_wH--9">
          <mxGeometry relative="1" as="geometry">
            <mxPoint x="490" y="280" as="targetPoint" />
          </mxGeometry>
        </mxCell>
        <mxCell id="1VdBIYyeLSir0RV5_wH--10" style="edgeStyle=orthogonalEdgeStyle;rounded=0;orthogonalLoop=1;jettySize=auto;html=1;exitX=1;exitY=0.5;exitDx=0;exitDy=0;entryX=0;entryY=0.5;entryDx=0;entryDy=0;" edge="1" parent="1" source="1VdBIYyeLSir0RV5_wH--3" target="1VdBIYyeLSir0RV5_wH--11">
          <mxGeometry relative="1" as="geometry">
            <mxPoint x="480" y="335" as="targetPoint" />
          </mxGeometry>
        </mxCell>
        <mxCell id="1VdBIYyeLSir0RV5_wH--3" value="" style="rounded=0;whiteSpace=wrap;html=1;fillColor=#00FFFF;" vertex="1" parent="1">
          <mxGeometry x="310" y="210" width="120" height="250" as="geometry" />
        </mxCell>
        <mxCell id="1VdBIYyeLSir0RV5_wH--4" value="&lt;font style=&quot;font-size: 17px;&quot;&gt;&lt;b&gt;System&lt;/b&gt;&lt;/font&gt;" style="text;html=1;align=center;verticalAlign=middle;whiteSpace=wrap;rounded=0;fontSize=10;fontFamily=roboto;fontSource=https%3A%2F%2Ffonts.googleapis.com%2Fcss%3Ffamily%3Droboto;" vertex="1" parent="1">
          <mxGeometry x="340" y="180" width="60" height="30" as="geometry" />
        </mxCell>
        <mxCell id="1VdBIYyeLSir0RV5_wH--6" value="&lt;b&gt;&lt;font data-font-src=&quot;https://fonts.googleapis.com/css?family=roboto&quot; face=&quot;roboto&quot;&gt;Generate Key&lt;/font&gt;&lt;/b&gt;&lt;div&gt;&lt;b&gt;&lt;font data-font-src=&quot;https://fonts.googleapis.com/css?family=roboto&quot; face=&quot;roboto&quot;&gt;public &amp;amp; private&lt;/font&gt;&lt;/b&gt;&lt;/div&gt;" style="rounded=0;whiteSpace=wrap;html=1;fillColor=light-dark(#FFFF99,var(--ge-dark-color, #121212));" vertex="1" parent="1">
          <mxGeometry x="490" y="200" width="120" height="60" as="geometry" />
        </mxCell>
        <mxCell id="1VdBIYyeLSir0RV5_wH--9" value="&lt;font&gt;Encryption&lt;/font&gt;&lt;div&gt;&lt;font&gt;Message -&amp;gt; Encrypted&lt;/font&gt;&lt;/div&gt;" style="rounded=0;whiteSpace=wrap;html=1;fillColor=light-dark(#CCFF99,var(--ge-dark-color, #121212));fontFamily=roboto;fontSource=https%3A%2F%2Ffonts.googleapis.com%2Fcss%3Ffamily%3Droboto;fontStyle=1" vertex="1" parent="1">
          <mxGeometry x="490" y="270" width="120" height="60" as="geometry" />
        </mxCell>
        <mxCell id="1VdBIYyeLSir0RV5_wH--11" value="Decryption&lt;div&gt;Encrypted-&amp;gt; Plain Message&lt;/div&gt;" style="rounded=0;whiteSpace=wrap;html=1;fillColor=light-dark(#FFCC99,var(--ge-dark-color, #121212));fontStyle=1;fontFamily=roboto;fontSource=https%3A%2F%2Ffonts.googleapis.com%2Fcss%3Ffamily%3Droboto;" vertex="1" parent="1">
          <mxGeometry x="490" y="340" width="120" height="60" as="geometry" />
        </mxCell>
        <mxCell id="1VdBIYyeLSir0RV5_wH--12" value="Analyze Memory&lt;div&gt;Monitoring System&lt;/div&gt;" style="rounded=0;whiteSpace=wrap;html=1;fillColor=light-dark(#FF9999,var(--ge-dark-color, #121212));fontFamily=roboto;fontSource=https%3A%2F%2Ffonts.googleapis.com%2Fcss%3Ffamily%3Droboto;fontStyle=1" vertex="1" parent="1">
          <mxGeometry x="490" y="410" width="120" height="60" as="geometry" />
        </mxCell>
        <mxCell id="1VdBIYyeLSir0RV5_wH--14" value="" style="shape=image;verticalLabelPosition=bottom;labelBackgroundColor=default;verticalAlign=top;aspect=fixed;imageAspect=0;image=data:image/png,iVBORw0KGgoAAAANSUhEUgAAAfQAAAH0CAYAAADL1t+KAAAACXBIWXMAAA7EAAAOxAGVKw4bAAAEumlUWHRYTUw6Y29tLmFkb2JlLnhtcAAAAAAAPD94cGFja2V0IGJlZ2luPSfvu78nIGlkPSdXNU0wTXBDZWhpSHpyZVN6TlRjemtjOWQnPz4KPHg6eG1wbWV0YSB4bWxuczp4PSdhZG9iZTpuczptZXRhLyc+CjxyZGY6UkRGIHhtbG5zOnJkZj0naHR0cDovL3d3dy53My5vcmcvMTk5OS8wMi8yMi1yZGYtc3ludGF4LW5zIyc+CgogPHJkZjpEZXNjcmlwdGlvbiByZGY6YWJvdXQ9JycKICB4bWxuczpBdHRyaWI9J2h0dHA6Ly9ucy5hdHRyaWJ1dGlvbi5jb20vYWRzLzEuMC8nPgogIDxBdHRyaWI6QWRzPgogICA8cmRmOlNlcT4KICAgIDxyZGY6bGkgcmRmOnBhcnNlVHlwZT0nUmVzb3VyY2UnPgogICAgIDxBdHRyaWI6Q3JlYXRlZD4yMDI1LTAzLTA2PC9BdHRyaWI6Q3JlYXRlZD4KICAgICA8QXR0cmliOkV4dElkPjFlZjY5ZDQ2LTE1ZGYtNGI0Mi1hYzViLWZhYWQzZjU3OTI2MjwvQXR0cmliOkV4dElkPgogICAgIDxBdHRyaWI6RmJJZD41MjUyNjU5MTQxNzk1ODA8L0F0dHJpYjpGYklkPgogICAgIDxBdHRyaWI6VG91Y2hUeXBlPjI8L0F0dHJpYjpUb3VjaFR5cGU+CiAgICA8L3JkZjpsaT4KICAgPC9yZGY6U2VxPgogIDwvQXR0cmliOkFkcz4KIDwvcmRmOkRlc2NyaXB0aW9uPgoKIDxyZGY6RGVzY3JpcHRpb24gcmRmOmFib3V0PScnCiAgeG1sbnM6ZGM9J2h0dHA6Ly9wdXJsLm9yZy9kYy9lbGVtZW50cy8xLjEvJz4KICA8ZGM6dGl0bGU+CiAgIDxyZGY6QWx0PgogICAgPHJkZjpsaSB4bWw6bGFuZz0neC1kZWZhdWx0Jz5VbnRpdGxlZCBkZXNpZ24gLSAxPC9yZGY6bGk+CiAgIDwvcmRmOkFsdD4KICA8L2RjOnRpdGxlPgogPC9yZGY6RGVzY3JpcHRpb24+CgogPHJkZjpEZXNjcmlwdGlvbiByZGY6YWJvdXQ9JycKICB4bWxuczpwZGY9J2h0dHA6Ly9ucy5hZG9iZS5jb20vcGRmLzEuMy8nPgogIDxwZGY6QXV0aG9yPkFuc29yIFBvaGFuPC9wZGY6QXV0aG9yPgogPC9yZGY6RGVzY3JpcHRpb24+CgogPHJkZjpEZXNjcmlwdGlvbiByZGY6YWJvdXQ9JycKICB4bWxuczp4bXA9J2h0dHA6Ly9ucy5hZG9iZS5jb20veGFwLzEuMC8nPgogIDx4bXA6Q3JlYXRvclRvb2w+Q2FudmEgKFJlbmRlcmVyKSBkb2M9REFHZzhQb3dHZ3cgdXNlcj1VQUZ2VkZDaFg3dyBicmFuZD1CQUZOQl9VMlJHSSB0ZW1wbGF0ZT08L3htcDpDcmVhdG9yVG9vbD4KIDwvcmRmOkRlc2NyaXB0aW9uPgo8L3JkZjpSREY+CjwveDp4bXBtZXRhPgo8P3hwYWNrZXQgZW5kPSdyJz8+6AIA9wAAP/9JREFUeJzs3Xm8V1XVx/EPoSjJFCiYiCA4laWGKSpKPDiWw6NPCkqJWlaaopZzSqOW5piJPeKc85A5ZRoO5TyG5oAkKJBmIqGoCFZKf6yLXPHee4a992+fs3/f9+vFC7ics/e6wL3rDHuv1QkRERGpvU6xAxARERF3SugiIiIJUEIXERFJgBK6iIhIApTQRUREEqCELiIikgAldBERkQQooYuIiCRACV1ERCQBSugiIiIJUEIXERFJgBK6iIhIApTQRUREEqCELiIikgAldBERkQQooYuIiCRACV1ERCQBSugiIiIJUEIXERFJgBK6iIhIApTQRUREEqCELiIikgAldBERkQQooYuIiCRACV1ERCQBSugiIiIJUEIXERFJgBK6iIhIApTQRUREEqCELiIikgAldBERkQQooYuIiCRACV1ERCQBSugiIiIJUEIXERFJgBK6iIhIApTQRUREEqCELiIikgAldBERkQQooYuIiCRACV1ERCQBSugiIiIJUEIXERFJgBK6iIhIApTQRUREEqCELiIikgAldBERkQQooYuIiCRACV1ERCQBH4sdgEhFbQ9cBdwJ7BA5FhGRTLpDF1lqGPAVYDTQr9XH5wP9gQUxghIRyUN36NLs1gJ+DEwHHgLG8+FkDtATOCTQ/KcB/wQWA78E+gaaR0QSpzt0aUarAnsBY4HP5zxnPrA68LbHOC4Bxi3zsXeAicBJwDyPc4lI4jrHDkCkgQYAlwOTsHfkqxU4d0Usmd/nKZadsaS9rOWB4cDBwArAn4F3Pc0pIgnTHbo0kxeANR3OnwcMxP0uvTfwDPakIMvrwKnAmdjdu4hIm/QOXZrFGrglc7BEfJiHWM4lXzIH+ARwIvAidtcuItIm3aFLM3kH6Oo4xnzs0f1bJc/fE7jSYf6XgQOAWxzGEJEE6Q5dmsmDHsboCRxZ8txPYu/vXfQHrgX6OI4jIolRQpdmcr+ncSYAG5Q471Kgu4f5V8Te5YuIfEAJXZqJrxXqANcDQwocfxawtae5FwHTPI0lIolQQpdm4uOR+xJDgCnAVzOOG4yVjx3vce4bUNU6EVmGFsVJs5kCbOR5zKnARcBs4FVsL/lawAhsEZxvOwK3BhhXRGpMCV2azdnAQbGDcPAatrjuvdiBiEi16JG7NJvpsQNwdCVK5iLSBiV0aTYLYwfg6NLYAYhINSmhS7NZIXYADqYCj8UOQkSqSQldms3Q2AE4uDF2ACJSXUro0my2jR2AgydiByAi1aWELs3kAIq1TK2a52MHICLVtVzsAEQy9AXGAG8CV2NV0spYHzjFV1CRLB87ABGpLt2hS9XdhpVNvRiYC1wC7FRwjLWByUA3r5E1Xt6WqyLShJTQpcqOAD7X6vcrAeOAm4F5wDnAyA7O7wrsCzyCFWOpu51jByAi1aVKcVJlr5DvrvRl4F7gaWzh2KrAcGAP6n9X3trrWJe1sr3YRSRhSuhSVd8GJsYOooLOB74ROwgRqR4ldKmqWcAasYOoqF3RnnQRWYbeoUsVjUPJvCM3AHsVOH41rOvbOcAfsfKx/fyHJSIx6Q5dqmgqsF7sIGrgbuAXfPRu/dNY69bhLT+3d3G0FXBfsOhEpKGU0KVqvgxcFzuIDkzGeqo/gxV6mYO1NP03MADoD6yO3RWPBHZoUFxTW2JZj/x337/C1iqISAKU0KVq/syHt6pVwaPAJOBaYH7Bc3ti2832AHbxHJerN4BPxA5CRPxQQpcq+RLwu9hBtHIXcGLLzz70Ao4FxmN75KtgF2xfv4jUnBbFSZUcFTuAFm9ij/63xl8yB7sjPhorQ/uox3FdjI0dgIj4oTt0qZLFsQMAHgd2B2Y2YK6TiX8RswhYBXg7chwi4kgJXapkNrawLJbJwP8CCxs45+7Yu/mYxmFb2VLyceCLwGco/33uXWwnwUO+ghIJSQldqmRLrIRrDNdhC9diiL2y/zYs+aXik9hOBF977VWdT2pB79ClSu7DOqM93OB5nwX2bvCcrf0GOC7i/NtibWpTcQh+C+fsD2zmcTyRIJTQpWqmY988j2jQfAuwUqpF+qx3A0ZjrVxfw979v9/y66eB67Ee7l0KjPlTrIpbDJ2xSnKp+EyAMbcIMKaIV0roUlWnAesQ/v3ld7ACMXmsgpVPnQtcjb17Xrnlzzq1/Hp9YDfgKizBH0X+r7OvUezCwqcxkeYNYXCAMfsEGFPEKyV0qbLngc0JtxL8SeC8nMeui201OxBYIec5PbCV7PeRrzb9i9idegyfijRvCCES+koBxhTxSgld6uAUYBPgn57HPSjncV/EkvnAkvNsDjyAXRRkOQV4teQ8Lv4QYc4Q+gErBhhXCV0qTwld6uIxLDG+7mm8e4H7cxy3DXAr0N1xvv4t862Zcdwi4HTHuYp6AKtel4Ksv9+ylNCl8pTQpU6eBw71NNZZOY75BPau3Jc+wJVkf91d7nHOjtwLbId1ZXutQXOGpoQuTUsJXermUuAJxzEWkG/f92FAb8e5ljUMODLjmJfxW3J2Wb/DWqeOwIrppGRQoHGV0KXylNCljq5wPP/WHMd0Jtxj6CPIXlh3fYB5bwSGAjuRbh903aFL01JClzqa6nh+nmp02xOutejKwFcyjvmTx/mewhYV7opVUEuZEro0LSV0qaP3HM/PU4lutOMcWbJ6oz/taZ5JwAbYosJmoIQuTUsJXerIdVvSzBzHbOI4R5atyf76m+E4xyXAtxzHcNEH2KjBcw4JNO7K2Yd4synwXaxRkEhuSuhSR2s5nLuYfCu68+wZd9GN7CThsu9+IVYFL5bjsIp6U7ALk5ENmDPkv1kPYPWA44PtoX8Qe4J0GnAD1s439LySiOViBxDYF7DVvOtg+4A7xw2nqdwAnBlo7A0czn2T7L7rfWjM/5Wsx7jzHcY+D3979ov6JXBwq98PBu4AJgA/CzjvtgHHBntNck6gsTcGbsY6xbU2FFvAOBzb/eDTCViHw9T9B3gJ+CvWL+GBqNEElGr71DHYFW7/2IE0qXlY17R5AcZeA7vjK3sx+gbZi926Au+UHL+IdbFvMu25ExhVcuwxwDUlz3VxNh1X4LsZWxD4VoC5nyJMY5Ylngk0/n7AhRnHvAj8DzDL47x9sb+zlDrt5TETOAC4PXIc3qX2yL0vtsf2KpTMYzqBMMkcYCJuT5Z65ThmIY1pkjI748+7Ooydt+GMTxPJLqe7M1ZHwOUpS1v2IGwyB2u8M9bzmBPJTuZgi/3uw++ivznY31uzGQTchtW06BE3FL9SSujdsEcpX4odSJN7Czg/0NjnYnuoXeUp4xp6Vfgssi8aXC5KG/GEobWJwLdzHjsYe0+ctXUvr17ALzyNleUMPvpYvIyVsa2Jef/OwN6l+07q9wCXeRyvTr6K3aUvHzsQX1JK6BcQboWr5HcZ/h+nfhK4G/imp/HydOMK/Z7t7ow/70q+Dm3ted/h3KLOpVhiAtupcBn5SvB2pDv2TdlHks2jL1bFb1WHMTbCnlKMKHHualhS99lR7vsex6qbzYjX4dC7VBL6UMLvG5Z8rvI41irAScA0/K6SzrOV6kqP87Ulq1775xzHX9/x/Lwm4XahNR54hHIXL6thRYI2dZi/jPWAhyi3tXEfbOW/y9OXJZ+3r6T+InCxp7Hq6AgSeUWbSkI/OnYAAliN9Hs8jLM6tpp4DvZv69rpbFlb5DjmCfx8Lm15juw79OGOczTiAvd84BsextkEW3CWt/FOf+AHwHRgQw/zlzEQuxC5mnz7xQdj/QMu9jT/kjt1ly2crd3gaZy6yttKudJSWOXeBVu57LKASPy4m/KrssG+OR0L7E3Y91ovAQNyHLcVYZL6CLLLz96FrWouazHWbjZPVbwyLgC+FmDcl7CLuRuBZ1s+1g/799oK2K3l56p5B7gJW3vxMtbTfjGWyHfDz9qPtryC/X+a7jjOStj30dS3MrdnGvbkpdZSSOgbAE/GDkIA27JUpqHJStje5f38htOhTci38O1k4CiP8/6c7CdKPXDbg77ENOxO36VAzbI6Yc1x9vQ4prh5FXvq9ILjOPdQzYulRulBmO2UDZPCI/dQDTSkuH+UPO84GpvMAcblPO54bIuLDzdhn2sWX1uj1sUqjw30NJ6SeTX1wxZxur5Tfzb7kKTleWpXaSkk9C6xA5APlL26bdQCrtb2xSrCZfk3ViHsRsf5zgO+jFWtyuKz/vra2HqAfTyMdSFK5lXVD3tN47LeZKafUGqrZ+wAXKWQ0KU6yr5/i9EJrDv2vj6PfwP/h63mnlNwnhlY29Jvki+ZH4D/hia9sMVYt1B+u9Ue2EWQVNdA3J50+axCJxEooYtP3Uqe53r3W9ah5G/o8T52lz0IS7oPZRz/OLbSfB3yf36rErbW+Y7YavIyBV129hyLhNHP4dysHgdScSmsaExhYV8qyr7D+wu2FzZUL+v2LIfduW5e4JyFWCGVc7HPd0Os2Ehv4O/YQrTpWKexon5NvtK0LnpjBV12x54a5Ok8B9bURqrP5WmX7+2hdVP7G9wUErquKqvjUw7n/gYr8NBomwEXUe5R5Qu4ryxe4ljCdwtrbVdsu9Om5Ou7fgGJ7NVN2IPAbx3OL/uELRWNrK4YRO2vSNAdepV8nvLfFGIWttgX+EnE+bcnTvnJ3ti2vDymkG+FvsQxB7tIc7G2j0BqrPb5sPafgFTKxyhfDOV+8j/+DeH4lh+NNgZ/2+LK2LjAsT/FuhlKtbyHVasrumBzWa7VCeuu9k97ldDFt686nBu7/ORPgFMbON9R+K19X0bRAjZ7YqVrpToOIXuRZpbu+G9pWze1f9qrhC6+7Ub5x+4u7/98ORyrkR2yRvjKWIewvI+7Q7ql4PFvY2VM3w4QixR3BVYq19VeHsaQyJTQxbflKV/p7PdUo/TicKwYy1n4XfnbFTgMq8i1ncdxy1oEnFnivBmowEwV/Bk/9fQ7kb8mg1RYCgm99u89EpS3rGpbqvSOdjy2De0I3FYADwR+DMwGzsDawlbBryi3vQ7s3+kEj7FIMfOw2gDvehhrF6y+QrOr/Sr32r8zwO50bo8dhHzEYGxveVGjsZaUeTyP7f3uj782ku15C7gVq5n9ENY6sz0DsHK2G2GPp6u62Kg/9vdXVifgD8A2fsKRnN7Duhr66AS4AjCVxteAqKItscW5tZXCPnSppv2A75c47xrgh3x0T/vfsK1Tj2PFMx7jw6t6u2Hv739MmLuN7tiK9DGtPvYIVmhmyZ/3xXq518Ek3JI52NOxPbB/l0GuATXQXOz/zjxsPcMq5KvrXxUn46+t7wSUzJOhO3QJZTblu3z1wi4IumDvsh/Fvvnm0QMr0Tq65NzNYk38NeMYBdzpaSyfpgCTgbuxPutz6Hhr16rYRdka2Oe0A27FkkJ4E/u6esPDWIPJV1SoWQzHnsDVlhJ6tvmUWzgk1uPcZy/uIo4lTrGWOrgct+2FbbkGu1uP7TngEuBS4GUP462FXVzuTTXaa/4Aewrlw3AaW53Q1VHYwtJQlNArIHRCn0W9HifKUtdhLUtlqcVYQ5rnPY+7HvYuNpaHsVc1IYv0jMUS6joB58iyIdb7oBnNJeyrkdq/Q09hlbtIe74ZO4AA7sQ6so3DqvJtC3yH/LsDbsB/Mge7M3Z9J1/GC1jp3M0IX3HvCuxiaBxxqhq+RfMmc8lBCV1SNg+4OXYQnjyNdYXbBvge9kj5j8Ad2CuhnbDa7Adg74zbc2LAGDuaN4QfAkOwlfaNdClW9/yCBs/7eIPnk5pRQpfU3RU7AA+uAz5LdnnP17G2rqOA1bCqd0u21y3CLgRCJoWXAo7d2svAMOBHDZqvLfOB/bEa6gsaNKePPeeSMCV0SZ2P1cAxPQXsU+K8V4DTscTXDdtO9zOPcbVlxcDjA/wJqzneUR2ARroJa0FbpuaCiFdK6JK6uv8fHwu84zjGAhqz2+Djgce/EBhJ/i2MjfIs1rXO197w9qwQeHypubp/sxPJsm7sABxchL07r4thAcc+Ffh6wPFdvQ58gbA7boq0upUmpIQuqQvZNS20m2IHUMAqhGu/eQu2B7kORgN/DTR2d6ycsEiblNAlZb2wLU119VjsAArYOdC4T2HlduvShOlN4EstP4ewe6BxJQFK6JKyKlQucxGyKpZvEwKMuRBLYK5rCFrrhpV23QjYCts90B+/C/pmAPt6HK+14yhfUlkSp4QuKSvbl70qBsUOIKdQDXH2x/3x9fJYAZ4zsET7Flb9cQq2iO0v2Ha7hVhxnJ9jFcM6O877W+AcxzHac3GgcaXmlNAlVX2xRUp1Vof3/8MIc3d+PVaZzcVoLInfBRyGNSPpyLrAkcC92IXEDo7zH4ldPPg2krh78KWilNAlVXvjv1fBE1hTk7Vbxv5sy+8nEKbs6ZYBxvRpCGHKrc4HDnQ4fz2sit7VlG+oMhj4fcuPrAuB9ryDlYkNYQJwcKCxpaaU0CVVPh+3L8Ae/34O61Q2veXjT7f8/gTsPazvldgjPY/n0+ZY2dleAcb+ER23Oe3I7ljRGV9PZ3ZoGW9UyfPvwVbp+9YJ62Z4PepnLi2U0CVFawFDPY63Hfnqdp8CbIF1hfKhJ/AZT2P5MhKrnf4AYd6bzwX+v8R5nbH35Ndi27t86oN9zkdQ7qmPr3anbdkNa1BzJ7AXtuhPmtRysQMQCWATj2MdTLEeyQ9i/bN9NYUZQZziMgOwhD0QuwPcElsVHnrl/enYArWiJmDvyUPpjF2w/QdrhlPEo9h7/LJ3+XmMajX+ZGAmVo52dsuvZ9G4WvsSiRK6pGiap3HuBSaWOO8W4DLs/bqrEYRZLb0SVnlsCJa81+TDCTyWX5c458tYn/JGOA3r+160ItzFhE3orW3bwZ+9wNIEPx27AG10lzwJxPeioRi2I2y5xVnUZ/uQLPUN4CSspWgZC4H1Kd90YyD2jdPVK1jnNJ/GYu/+q2Yy9vVcxObY4+ZG7tl/E3sKVGRLXTesh3ojGtgU9TDWlvft2IFkmIu9/ghlS+D+gOMHp3fokqrzsAIiR1Lunfb3cOugNaslBlc9PIzR2hCqmcwBrilxzqE0vgBPD+DbBc95G7g1QCw+DMN9i6BUgBK6pGwB1tRjDeAY8if2Ryn+nrQtJ3oY41wPY7Tmurc6pD8UPP6zWFnYGL5F8e1sd4QIxJOdsQWdUmNK6NIMFgInY++KDwH+kXH83p7mnQVMcjj/DOBwT7EsEWKbmQ8zsAVcRcRs2LIicFDBc+4KEYhHas9ac0ro0kwWYXt3BwHjaXvV7/H4W1QHtkf9vZzHLgb+hN399Qa+6zGOqnuk4PFdgF1CBFLAjgWPnwa8GyIQEVBCl+b0LnA2dsc+nqXJ5GL8PCZv7W/A+RnHTMFeCayO7fOehPXXbiZFL6JG4X99QVHrYlXping2RCAioIQucja2KKgTtn88hJ+28bHZwM+wlfRDsVcCIcrH1kXRJizbBImiuF0LHh+qV7qI9qGLNMBsbJvTTsD72LvU+6JGVD1FS72uHiSK4gYVPL7oOgGR3JTQRRrjsZYf0rb/FDx+1SBRFFc0jqwFmSKl6ZG7iFRB0YQ+KEQQJSihS2UooYtIFSwfO4AG+VfsACRdSugiUgVFu4TNDBFECUXvuH13ghP5gBK6iFRB0YRelUfXMwseH3urnSRMCV1EqqDou+iqtAItGofvRjsiH9AqdxHTG+t9vgVuHbGexqrR+aw21wzWLnj8Hfgvi1vGLQWPXydIFCIooYuAfR08gFX+cvUFrHXrxlhyl3yKJrq7gPlAzwCx5DUNeK7gOT7+j4m0SY/cRawPss9vtF2oxt1jnQyl2PejfwE3B4olr98VPH4lipeKFclNCV2k+OPePIYFGNOH92MH0I7ewIYFzzk1RCA5LcLKBhexDVZiuKryNhGSilJCF4EhAcas6rvSoiVWG6loffYngatDBJLDucCLBc/ZNkQgHqlxTM0poYuEqTrWmeqUJ23tdqrbyW2fEucch90tN9LrWGOdovb0HYhHY4G5sYMQN0roIrBmzcZ18RK2ZuD+2IG0YX2siU0RM4BxAWJpz/vAGODVgueNAfr4D6ewRdhivtuxNr1HYX/vV8YMSvzQKneRcIl3EPBgoLFdPIsldbDPfQAwGBiIxbzk9zEuSA4EHi14zrVY+9mj/YfzEYcDk0ucd5DvQDrwGvAIMAsrfNP656IXIlIjSujS7FYEVgk0dhXv0Jf1YsuPe9r58wFYkh8BbNfyc0j7AcdQ/F3/MUBX4BDvES11AnBmifM+D2zlOZZlTQXOwbbz6V14k9Ijd2l2awUce1DAsRvlb8C9wInYHvt+WFIL+d76wJLnHQp8B1jsMRaw1d9fByaUPD/kFsZZwGjg09iqeyXzJqaELs1uUE3HjmUOljSHAM8EmuNwypdIPRPYHbsQ8WEGsBNwYcnzhxFuMdwc7CLr2kDjS80ooUuzC/lYvA6P3Mv6OzAKf4mzte7YtrCyrseevBwCvFJyjOnYqvv1gNtKjtEFuKzkuVkWAFtjd+giAPwXAAD//+zdebReVXnH8W8MtEFCZAxBhoAyFJRBccCCyiSEMYA4tIpYZC1KVxGHOrei6KoVqZaohaqUwVUVFAQMkyAzgowhiBDGG0YJSQyRaclg/3hu5BLucM559z7nvOd+P2u9Kwzvefa+d+Xe33v22YOBrvHOQK9uAbATES6p7Q0c1MP1fyL21J9OPPv/LnD/GNfcSWxW8w4iyE8FnuuhD18l3yOdz+LWwlpOm3ctKmo3YglGLvPp5tBpG00CXk88B3yqpjbPAmZmrL8Bee5ih/M6Yn/zuk8iO5yYkJXaU8A2wF0Ja65M7Eq3BjESsARYDCwi7byAGcD5CesNNUB8UBhvO7stJO/Sv7Yu5yzMO3S1xYeJO77riTu+X5Bv9vlQ22Suv1Xm+hBLoh4j7tgeID6krFlDu8scTxxuk9orieHzVyas+STxPZpDTPa7FXiItGE+HfhJwnrL+zzjL8xVgIGuNjgYOIm4Y1pmb2Au8JaM7W5F/PLNaZ+MtVciJkR9h5cG+EzgKuoN9f/IVPf1xKYn/TKauDJxZ57rFLg/AWdkqq0+Z6CraXsCJ47w/6YRwXREpraPzFR3qA8Aq2aouxFwIzGjezibUW+oV9lspah9yfeBIbXTgc0z1r+ICHXpZQx0NelNxB3mxFHesyIwixjCXClh21sAhySsN5LJwOcS19yPGDIeKzg2IzaMWTtx+8N5hnzPjCG2KD0hY/1erQpcTnxAzSnn91h9zkBXU15DLAcq+nz0fcTz9RRHnU4iZjDX5dOke3TwdeDnwJSC79+cCJo6Qn1x5vqHAReTbzi7qi2ID1i5d9GDeN4vDctAVxPWJFYmlJ2x+jriF+f+PbQ9CTgb2LaHGlX8kt4m4K0FXEZ8OChrM2ICWO5QH22kJZVdiLkVW9bQVhEHEvum556LsUzdJ8upjxjoqttKwLlUX5+7bObzsRWu3ZAIxd0qtt2LVxGh+t4K176DmI39zh7a34R4pr5uDzXGUkegQywFnEu1DzeprE7M/fgpMRFOapyBrrqdRprh508Su3kVuVvfnth57D5iK86mTCa+/suJZXpjDR2vCXyLdEPmGw/WyhXqOVckDOfrxAed7Wtu92DiCNI65mAsb7sG2lSf6JelIKNxY5n+cQLxHDS1u4hJc1cQO3utTAyBbk4Efs670l5dQIwaPERsU/o8EeT7EHfzkzK0eQ+wI2k3oNmE2GmtKRcTh6dcm6n+ROCDxBrwTTO1UcSV1POsvo3cWGYMBvrYDPQ0vkBshal2mE/c2aaaZPUJ4D8T1erFzcT+6SeTZpLepsRJawcB6ySol8JrgXub7kQDDPQxGOhjM9B79z7y7pylauYTz+V7PeBjEvE4Y1rPPUrrGuLO/XLiMJkFxBavI3k1MJVYgbErcfjMZpn7WMUFwB5Nd6IBBvoYVmi6A+q8XTDM22o6EXZbAUt7qPNR2hfmAG8bfC1/jvkCYqvcPxCrB6YCq9XbtZ7MAN6Dx6ZqOU6KU05rYZi33XR62/hmC14emG03lVgCuQNxB95PYb7M/xJD79JfGOjK6UDq3U9c1VRdH78aMfw7OWFfVMxkYDZpD65RnzPQldOKTXdAhdxX4ZqJxIl46yfui4r7G+CHTXdC7WGgK6cLmu6ACplV4ZoTqH/9t17uAOAzTXdC7WCgK6c7gS813QmN6hDgjpLXHA4cmqEvqubfGb9r0zWEga7cjia2elX7nECcQ1/G9sC3M/RF1b2COLBng6Y7omYZ6Mrtz8D7id3J1B7XEsvNylifeG5e157tKm51YpLcXzfdETXHQFcdngD2Bp5quiMCYh32TODZEtdMIjZw6sclXuPFlsSZBRqnDHTV5Q5i+0w161kizBeUvO5QYm98tdvBwNZNd0LNMNBVpzOJE7LUnCOpdoBJ3Sepqbptm+6AmmGgq26fJ/bXVv1OAo6veG2v+72rPs5XGacMdNXtBeKwloGG+zHe3E5v53d/h9EPNlE7/IY4YlXjkIezqAmLibOlr2q6IyN4HLgUuI541rzs9djg64/EHuhTidnFy07pegNxGE0bt7vtZb92gEeJE8guB6b03h1lMI+YfPpC0x1RMwx0NeVqYtvKtkyUWwKcShwmc02B989n5GHoNxKjEP9AHFDTtBuBsxPUmUMct2qot89twI7EEaMapwx0NelTNB/otwNfBk5LWPOmwddngP2Ao6h+AEoKJyesNYcIjkuAVRPWHeoC4Fbg3sHXmsC6xOlo+2ZqM4VFxAYvc4EHgeeIU902JSYVvi5Tu3OBnYiRL41jE5ruQAK7Eetjc5kPbJix/nh3LfDWBtq9F/g0cEZN7e0NfIM4UKNubwRuTlxza+KxRMp16d8jtgp+ZJT3rEyE+iHEI4A2+B3xd2msHRF3J/4ObJmw7TnEY57xEOYLgTUy1t+BGDnsW06KU9N+1UCbXyLOkq4rzCF28dqcmOX/TI3tPkX6MAe4hbgr/EOCWo8D+wCHMXqYAzwJ/Bh4F/EhaUmC9qt6AjiCuPMusr3xhcBWxIhNCnOAnRkfYa4CDHQ17bc1tjVA3Fl+ucY2l/c14o757prayxl4txDD7720cTuxbnp2hWvPBd5Oc4G2DzH7v6yjgRnE5MqqbibCPMUHKnWEga6m1bX39GziOfbcmtobze1EqJ/VdEcSmEuc9FVlSdu5wJvpbd30b4m79bq9G7ish+svJFZF/K7CtTcRH6QMc72Ega6mTaqhja8Rd1OP19BWUX8E9ieOvsypjp/xW4k75cdKXPMVYsj8yQTt3wR8NUGdomYRux726h5gO+LAm6JuIu7MlyZoXx1joKtpW2Sufyjx3LqtvgB8OGP9aeSdSLTM7USoj7Vs6kniw9UXE7f/X8Ss8tz+QMzBSOWPxCS/o4mTCUdzPTFvoU0fTNUiBrqaNiNj7aOBEzPWT+UUoq+57JCx9lDziFAfafj9fuKOtMrz8rEsAn6aoe7yjiHPUPdRxIjNSCcSXkvMZvfOXCMy0NWkDYFNMtU+g3SzietwFGmGcYezR6a6w7kD2H7wz6EuJiYk5pwEWceqhSKz2as6m1ivft9y//18Yp5AL5PoNA64sYya9PFMde8GPpS45upDXhOJO8LFpN2Z6yBistyGCWtCPHb4DvWtKJhHLNF7N/B64C7gRzW0e33m+ouI+QI53UasU/8IMJn4mi7K3KY6wo1lxubGMnlsSSy9mZi47jPEMqgqs4eHWpM4N3xf4u5opRHe9yyxFeo5xB32Qz22uw1xwMZf9VhneTcSM8rHek7b75YCq2SqfSF5HxFpdG4sMwaH3NWUE0kf5hCHkPQS5qsA3yI2OPkBEegjhTnAisSOZbOAB4jn4VN7aH8O6SeMQXzI+W6Gum0z0Ke1pZ4Z6KrbBOJZ4Zsz1L4OOK7itROI2eZ3AR+j2uOoCcRQ/13E44Sqj7SOJYZeUzuctDO022igT2tLPTPQVbfjyHfAxj9SbUh5JeB04CRg7QT9mAJ8kxiirTJE+DyxDWoORxGjI+tlqt+0kU7AS2EgY22pZwa66vIRYvbuEZnqX0K1Pcs3IZ5ZH5i2O0BsAHIjMbu7rKsHr83hEOLxwAnEgSF1bO5Tl4E+rS31zFnuymEqMZHwrcRGGDsDr8rc5rEVrplCLEPKtXQOYDoxS3lbIkTLOIa0x7ou7zBeHAm4kjiBboC4y71vyJ/9xDt0jVsGuqpYF9gA2GjIn9OJEN+A0SeR5XAvsVa3jBWBn5E3zJdZi5gF/07KbQxyOjHZLsVjgLG8ffA1nAeIoBwgvtc3UG670joNZKr7NPBoptpSEga6ilqLOK96d+oP7LH8T4Vrvk29h3psQwT0nsALJa47Cfhslh4Vt/7ga+iOc48Qe7Hf1EiPRjaQqe79dH/Jn/qcz9BV1GxgP9oX5hChV8bawPtzdGQMuxLr78so+7XVZR3iUcJGTXdkOQuJu+nUBjLUlJIy0FXEtsSWlG10A+VO+YJYq577mf5wJlL+LPY7gQcz9CWF1YGTm+7EMHI89x/IUFNKykBXEa9uugOj+FXJ908BjszRkYJmEtuilvHLHB1JpI1/N+7OULPfJgdqHDLQVUSbnx1eWfL9e2bpRTkzS77/qiy9SKPMfIC6lP07UUSuJYRSMga6imjznv/zSr5/vyy9KKdsH+7K0os02vg75FjgJwnrfZM4LU5qNWe5q589T/mh0F1zdKSktxJ7xhc9DrPNgd5Wf0fsXd/r77gniHkaUusZ6CqirUPuDxKhXtSq5D2tqYzXEgexFPEo8BTwynzdqayNQ+7LtPlRhZRcG4fL1D5tHXJ/tuT7p2XpRTVl+/L7LL3onb9DpJbwh1H97LmS7zfQJXWWga4i2jrkXlY/B3rR5+11a/OQuzSuGOgqoq1D7quUfP8dWXpRTdm+rJmlF73zd4jUEv4wqp9NLvn+Ng1bD5R8f1sDXVJLGOgqoq1D7mW3b/098GSOjlRQ9ijV6Vl60TuH3KWWMNBVRFuH3AE2K/n+NixlmgcsKvH+jXN1JAF/h0gt4Q+j+l3Z88zPytKLcsr2YYssvZDUKQa6imjrkDvAViXff0GWXpRTNtDfmKUXaTjkLrWEga5+t1PJ9w8AZ2foR1G3AteXvGb3HB1JxECXWsJAVxFtXQMNsAMwqeQ1R+XoSEFfpNx2tasB22XqSwpzm+6ApGCgq4hbgKVNd2IEk4C9Sl5zC3Bahr6M5SrKD7e/J0dHErmdZs+WlzSEga4ilgAzgIVNd2QEh1a45gjKLx3rxVLgkArX/VPqjvRoEXAdMdLwFtq1tl8a1zxtTUVdA6xFHP25MbABsBGxPnrDwX8vO/SdyozBPgyUuOYxYF/gcmBK+i69xLPAgZQ/BnU7YOv03RnVo8T3cT5wL/Gh5x7iZLt7gGdq7o+kggx0lfWbwddwpvFiwE8H3kacP152R7cqPgp8ouQ1c4D3Aj8HVkreoxcdBlxU4bqyX08V84lJgpcClxGjMZL6UJs3DClqN+DCjPXnEwGl6nYE/oXyz7rLWAqsR7UJfG8CziNGIFJ6irgzP7/Cta8h7ohzeQD4CvD9jG1IKS0E1shYfwfg6oz1s/MZuupwGbA3MYR8d6Y2pgAfr3jtDcRowu3pusMjwDupFuaQdyb+HGKzGsNc6hADXXX6DbAz8HCm+v9G+Z3jlrmH2KTmQ/T2oeMRYub3a4kPClXsMtiPHO4n5hw8kam+pIYY6KrbA8C7gMcz1F4BOLWH658Dfkh8KNh/8J8XF7juCeBM4ANEkM8Cnq7YhynASRWvLWIvYuKbpI5xUpya8Dvgk8APMtTeDvga8Lke65zFi2vG3wasA6w++JpIBP1iIhyv6LGtoU4F1k9Yb6hvAb/NVFtSwwx0NeVE4CDiOXNqnwUuodrM8uFck6jOWD4KzMxUezGxdlxSRznkriZ9MmPt06n+PL0JuwDHZax/Bj43lzrNQFeTbiQ2eMlhVWA2+TeNSWFD4hl8Tudlri+pYQa6mnZOxtqbEvunvzpjG73aGvg1+T94pHr8IKmlDHQ1Lde69GW2JEYC2nim+J7ERhbrZG5nIfBk5jYkNcxAV9PqmJg5jQjOj9TQVhETiF3aZgMr19Ce+69L44CBrqbV9XdwErFM7mTgVTW1OZx1iK2K/5VubL0sqSUMdDVt45rbOxi4gziUpU4TiCNb5xEb69RpPWKUQlKHGehq2owG2pwGnEasL98jc1uvAP4euI3YQW6VzO2NpO4PEZJqZqCrSduQ/oSzMrYjlnPdDBxK2qH4acCniNGA/wM2T1i7ig823L6kzAx0NamO876L2IY4eWwJsYzun4HNKtTZmtgs5yLikJZjaM/mNrsBBzTdCUn5uPWrmrI5sfVr2+wz+IKYHb6AOB1uMbH86zHgT8Ta9rWBqYOv9WrvaXmzgF/ijnFSJxnoasq3m+5AAZOADQZfXbAucArw7qY7Iik9h9zVhKOIvctVvwOAjzfdCUnpGeiq245EoKs5xxBHwkrqEANddVoX+BluqNK0FYCfA2s03RFJ6RjoqssKwNkYIm2xNvHhyt8BUkf4w6y6fAPYtulO6CV2BI5uuhOS0jDQVYd9gI813QkN6/PEGnVJfc5AV24bAz9quhMa0QRiG9zpTXdEUm8MdOU2C5jcdCc0qlWB45ruhKTeGOjKaQWaOXxF5e2Fqw+kvmagK6cXiO1T1X5LgT833QlJ1RnoyukFYqtRtd8Pmu6ApN4Y6MrtE8AVTXdCo7oE+EzTnZDUGwNduT1NPEf/ddMd0bAuA/ZsuhOSeudpa6rD08CuwGxg54ztPAzMA+4GFhGnpG0I/G3GNlO5EhgAHiSOZt0Y2ApYJWObFwPvylhfUo0MdNXlaeKEtYtJf9LaKcBXiSAfzurAgcD7gZ0St92LO4mDUn4GPD7Ce3YCvkD679kFwB6Ja0pqkEPuqtvexDPbFBYQQfdhRg5zgMXA94jRgW2AmxK1X9US4EhgM+BERg5zgEuJ0Y33AQsTtX8ehrnUOQa66vYMseb5wh7r3AC8gfIfDm4BdgDO77H9qhYCbyY23CnjdOLrndNj+7OJ77+kjjHQ1YRniIly51W8/hQiFB+ueP3TxESwVCMFRT0B7M7oowmjeZAI9apb6Z5D7KsvqYMMdDVpL+KOsYwjiSH2FA4CnkxUq4iDSTPc/wHg0yWvORuYmaBtSS1loKtpBwAXFXjfIuAdlB+qHs3DwPEJ643mCuDMhPW+QcwfWFLgvecSkwIldZiBrqY9Sxzfec4o77mFmMx2ZYb2T8hQczhHZqh5CfF9uW2U95xFTER8LkP7klrEQFdbzCSWby3vDGId+YOZ2r0HuC5T7WXm0ftktpHMB7YDfjHM//sxsH+mdiW1jOvQ1SbvIZ5r7w+sRkz++n4N7V4NvCVj/csy1oaYbLcvcDixvG0R8eHox5nbldQiBrra5oeDrzrNzVz/6sz1lzme+uYESGoZh9wluDdz/Xsy15ckA10i9lDP6b7M9SXJQJeA+4HnM9V+HngkU21J+gsDXQrzM9W9K1NdSXoJA10KA5nqOtwuqRYGuhRyBe9AprqS9BIGuhQGMtX1Dl1SLQx0KeQKXgNdUi0MdCkMZKproEuqhYEuhVyz0auefS5JpRjoUlgA3Jm45n3A44lrStKwDHTpRQcADyWqtZQ4aEaSauHhLNKLbgO2Jk4sm9pDncXAmeQ78lWSXsZAl15qEfDfTXdCkspyyF2SpA4w0CVJ6gADXZKkDjDQJUnqAANdkqQOMNAlSeoAA12SpA4w0CVJ6gADXZKkDjDQJUnqAANdkqQOMNAlSeoAA12SpA4w0CVJ6gADXZKkDjDQJUnqAANdkqQOMNAlSeoAA12SpA4w0CVJ6gADXZKkDjDQJUnqAANdkqQOMNAlSeoAA12SpA4w0CVJ6gADXZKkDjDQJUnqAANdkqQOMNAlSeoAA12SpA4w0CVJ6gADXZKkDjDQJUnqAANdkqQOMNAlSeqAFZruQAJ/zlx/ErBj5jYkSaNbMXP9FzLXz64LgT4hc/21gUsztyFJalbfj1j3/RcgSZIMdEmSOsFAlySpAwx0SZI6wECXJKkD/h8AAP//7d1/sFxlfcfx9xiaSoi0/EhNIFBCopU0QBCMSIAWS0AnWJriNIQKLUF+qCDV2sqvYsFOS1ELpQoqEFRAjSkUCE0tJS1WBBJAnSkICEKGSAgmkEwhCFaxfzybybnn7t7ds3t+Pvt+zezknrO7z/nu3sn9nOec55zHQJckKQIGuiRJETDQJUmKgIEuSVIEDHRJkiJgoEuSFIEY7uVe9OQsUpOtB34MjAN2I8xNIGk0J2eRVDtfB5YBK4BXUs/tABwDHA/8Qcl1SSqQh9yleFxO6IUvAm5mdJgDbAGWAguAacA1pVUnqVAxBHrR06dKdfc8MBf4CPBshvetAU4l9NRfzr8sqVEan4eN/wB4Dl3DbQtwMHDPAG3cChyRTzlSYzX+HHoMgW4PXcNsEfBEDu2sBs7OoR2pqRqfh43/ANhD1/D6IrA8x/auAFbm2J7UJPbQa8AeuobRi8AFBbT7YdxJ1nBqfB42/gPgHx8Np88CGwpo9weEEfLSsLGHXgP20DWMbiqwbQNdw6jxedj4DyANoY3AgwW2v6LAtqW6avzRXgNdap6nC25/M2GnQRomjT/aa6BLzVPEufO0oncaJOXMQJea51dK2MYvStiGpBwZ6FLzTC5hG1NL2IakHMUQ6I0fyCBltEfB7e8CTCl4G1LdeNlaDTR+IIOU0RuAwwps/9gC25bqqvF52PgPgD10Daci5zJfWGDbUl3ZQ68Be+gaRmcAkwpod3/gqALalequ8XnY+A+APXQNpwnAJQW0+6kC2pSawB56DdhD17BaTL7nuy8E5uXYntQkjc/Dxn8A7KFruN0ATM+hnVOBi3JoR2oqe+g1YA9dw2wisAo4pM/3jwMuJ8ytLg2zxudh4z8A9tClXYDvEM5/ZxkodzDwAHB2EUVJDWMPXVJtfAz4CfBlOp9b3xE4EbgFuBeYXU5pkoq2XdUFSMrdSa0HwP2EXvh44EAMcClaMQS659Clzt7WekgaW+OPWDf+A0iSpDgCvfEDGSRJlWv8lMExBPrmqguQJDXepqoLGFQMgb6u6gIkSY3346oLGFQsgb6m6iIkSY21GthSdRGDiiHQAW6sugBJUmN9reoC8hDLJV+7Ak8D21ddiCSpUZ4HpgKvVF3IoMZVXUBOXgZ+hjNFSZKyOR34btVF5CGWQAe4B5gFzKy6EElSI1xOmAMhCjEFOsAy4EXg6KoLkSTV1mbgNODSqgvJU2yBDmHCiS8BewL7VFuKJKlGtgBfIUxedF/FteQulkFxYzkcmAHsTpw7MJKkzn4OrAUeI8IQTxqGQJckKXoGuiRJETDQJUmKgIEuSVIEDHRJkiJgoEuSFAEDXZKkCBjokiRFwECXJCkCBrokSREw0CVJioCBLklSBAx0qT+XAnOqLiJi7wU2Vl2E1CQGutSfp4E9qi4iYvOAO6suQmqS11VdgNRAO2CYF23fqguQmsZAl7J7a9UFDIH9qi5AahoDXcrOsCme37GU0XZVFyA1kGFTvFmEDsdrVRfSYPOBdwMHEk4R7Q68AKwHngRWADcDz1VVoPLloDgpu3uAd1RdxBDYB3i06iIa6CzgQmDXHl9/HXAuBnvjechdys4eejn8nrP5TeBh4Ap6D3OAk4E1wAkF1KQSGehSNnsTRrmreI50791s4H5gZp/vfz1wI/DnuVWk0hnoUjb2Gsvjd92bGcBdwKQxXvMCsIrQEx/Lp4HTc6lKpTPQpWzsNZbHQO9uIrAc+LU2z20CLgDeDOwCHAxMa732JODBDm1+Hjgk90pVOAfFSdksI9yWVOWYCGypuogau4IwCC5tCXA28FKX9/8xcA3hkHvSk8D0gasb3L7AkYRBqO8Apqae30wYpHof8C3gv0utrmYMdCmbxwg9HpVjLuEPtkabATzeZv3FwCcytHMQ8G1Gh/qHgX/qr7SBTCAM0DsNeFvG9z4JfBG4liGcC8BD7lLvxmOYl81THJ2d02bdLWQLc4AHgDParD8vc0WDO5Fwnv9qsoc5hEGrlxDmWjg3v7KawR661LuDCCOJVZ4rgQ9VXURNbSScG0/aG3iqz/a+D+yfWvd2YHWf7WUxjXDo/50dnl8OfAfY0Hq8CkwmDAScRTgNNrHN+x4B/pRyPkPlvFOc1DsHaZXP77y9Qxkd5jfTf5hDOLx+TWrd71N8GM4G7mD0KP0fApcBSwkD/MZyMrAQ+CBweGL9PoTR/ccA/5pHsXVmoEu9M1zKd0DVBeTsrcCObdY/Q/vz4Z28qc265X1VtM3tbdYVfcpjLuEWtMnv5FHgfMIOShZLW49DCYfd5yaeux14H+Fa+2gZ6FLvDPTy7QDsSTgn2nRvpvOlYltof8i4kze2Wbc+c0UjPdeqI3njpCJHuu9F6JlPSKy7E/hD4MUB2r2bEOrXAosT628A1hLxSHgHxUm9m111AUMqlh2pse4wmPXug7/eZl0el/c9k1qenEObnXyDkWH+VWAeg4V50imEEf9JXwd2yqn92jHQpd5MIeI/BDXnSPfRihrQ/MvUclEZcQkjR7GvJFwTn7dPMHJcwBTCCPooGehSb2LpJTaR331c9gQ+nlh+inCYvSinMnJg33FEeic8A13qjaFSHb/7uJyfWj4B+N+Ct7kwtfzXBW+vEg6Kk3pjqFTnLYSb+vys6kJqZAXw09S6J3Jo9zLCYemtXs6hzaSphDvAbbWMcNvWoq0BLgX+srU8j3CN/aoStl0abywj9abdTTdUngMIv4Mmm0K4trrdaPbHGY67EH4E+IfE8nTC7VrLsCNh0N/W7/8fgT8radulMNCl7l5H6A2Nr7qQIfYnwFeqLqJihwJ/U+L2XiLsRH0PuCmnNu8Efq/18yrCDHBlWgr8UevnHxHuhx8ND7lL3c3EMK+aI91hV+B3St7m/Na/TxF2qr49QFvbsS3Mof1OwsnAdQNso5t/YVugTycEeh6nKmrBQXFSd54/r56/g2pNI9yQpd0kLr3aNbX8X6nlBcBhA7Tfi/9MLR9Y8PZKZaBL3dk7rJ6BXg9X0f/teNPTs/4ktXw8IwfkFSG9zd0L3l6pDHSpO8OkepPxxj518Vd9vm/71HJ6vvI5rUfRkhPYRBXonkOXujPQ6+EARh8ybaIphPuMT+jyus2EqT83F11QRgsI2fHzjO9Lj0NJXxK3V+vfuYSpUouygXAKAdrfE7+xDHRpbDsQrp1V9fYjjkB/E/DuHl87jTDKHEbflrVKE8h+M5j0dfM7Ay8kll8hHJZfRLGBvnPi5+cL3E7pPOQujS2qQTMNF8tYhn6Dud/LjB8ijB4/AjgauLXPdpJ+tY/3pCePSZ8v3zoxzIco9lB48lK19GQ0jWYPXRqbh9vrI5bfRZZAT772bkIop11M59Hh5wF/l1p3BzCLcAlau1nbipIO9L2AhxPLD7JtutZPEW4Jm7f0IfZ1BWyjMvbQpbHFEiIx2I84/mZl6WknX7sRuKvN4/YO7/0ao8N8q4cIh7bLlB4LcGRqOfk5FhGue8/bUanlHxSwjcrE8J9DKpKBXh/jiezOXjl5rcP6j3Z53zeBe3OupZvk4f73pJ77Z2B9YvlLwOE5b39+4udnge/m3H6lDHRpbLOqLkAjuIPVmx8yMhw7WVl0ISm3JX6ezshxET8FLki9/lvAWTltewIjByPenFO7tWGgS51NJ4xyV33EEOhlzKGRvua7k6yXng1qeWr5b1PL1wI3pNZdQTgcP+jkNecSJmjZykCXhkgM4RGbuo90fz9hIFv6sTTxmjIuP9uD3u66NrfoQlI2AFcnlo9h9EC/E4FvpNbNBx4DvgD8Vh/b3Y2Rvf8HiOMSyBEMdKkzA71+6v476XTPgn0SP/c7KC6rj3V5fjZhXvB+DFLXJ1PLX2bkteEAC4GPM/ra9dOARwnXqZ8HLCYMdFvYZZvpHYRzei22SbxsTeqs7r3BYbQ34TRI+hKoukv2yh8GVtD9dM5mQnj166PA/xAGl6XNAG4ZoO1BjjKsBS4jzI0O4WjCrYy+9O5S4HrgfEKvPXm4/JDW40Xg7xk5x3ra9Yw8EnE35Y8dKIWBLnVW997gsNoXuK/qIgbwPCNHWxfpOuD/gBtT678HTCyphnYuJNzkZmZr+VDCKPcTGdkrfxY4s/U4inDnvJ0JO0VP0P2ys88A70ssvwScNGDttWWgS+2NJ9yiU/WzH80L9DIGwnXS7uYxVYY5hGB9D3A/2w63Hwe8BTgW+FGb99yRof1JhCMQh6TWjyOMLXhq1Dsi4Dl0qb3ZVRegjpp45KTIgXBv6PJ8lTsTY3mSEOJJv004TZC+fC2LU4FHGB3mEEb/30G4E90ywpGLYwfYVq3U9RctQbhu9GLC7E57V1yLhttGwsCqv2D0LGFJR9I+jG4HPt3ntucQzie3M5Hu8w2cBXw2tW7QHYzfIIxYz8McwvczKbX+acLnvpMwwn0sU4F3Ec7Lz0w990u6Z93VhAF3jWagq85WAu+suggp4SbgvSVv82jCXd36dSbwudS6OgU6hMvKbqPzzsmzwPcJO1YbgFeBya06ZtD5UrZnCOflryQczh/LEuCUTFXXjOfQVVeHY5irfo4jHBZ+uNsLx7Ab4Xr1dqc8bwQeT60btOPVhI7bOuAgwqxw5zD6JjJT6O26+mR7nyFct76FcK37I4w9Gc3i1r+NDXUDXXV1QNUFSB28ncECfRFwUYfnJhGmDx1W17UeJxCCNetO/WpCT/sLqfXr6W1muUaHuoGuutqx+0ukSgw65ei4MZ5r9zd50MPjZdyZLm9fbT12I4T7fMLOzk6tx/bAc8AmwiH4lYRbxrYbHU+rnV4tJnxn7++n8CoZ6JKkulpHGEzY74DCZDtrCHOw92JrD71RoW6gS1K5svaYNxFmHUs7iN4mD/Ly5OADwL9leP0pwC+A04spJ38GuiTlbydg/w7PjXUJZruwXw38bpv15zJ6trJ2FhCu7d5qTg/vidE3CSF9bYb3nEbIyUacUzfQJSl/VwLH9/G+lzK8dlOPrzuC0TOaDeq1nNsry5LWv1lCvTED5Qx0ScrfhC7PP0sY7JW2qoBaivBK1QUMoN9QX83o0fO1YqBLUv66Xfv9CnBXCXUUYS3Nm+0ubQlhbMHV3V6YcBE1D3QHS0iSsris6gJycg3Zbvf6RuD1BdWSCwNdkvLXbSR7E68NB3iQeAIdQg/9gz2+di01P9VgoKuuNlddgNRBr4PRYvMQYQKU2FxFb6F+RtGFDMpAV109UHUBUgdNm4t9UOuATwKHESZHiVG3UP8AsKKkWvrmoDjV1b3AfwDzqi5ESrieMMlHHdwGPFrwNl4l/F8cBlcRPu/nGHmu/Ezg85VUlJGBrjpbAFxImK7S+dBVpccJ9wq/uMfXd5u/O4+dgnWth/KzhDD/+rsI+fjvdL4/fO00YVo9SZLUhYEuSVIEDHRJkiJgoEuSFAEDXZKkCBjokiRFwECXJCkCBrokSREw0CVJioCBLklSBAx0SZIiYKBLkhQBA12SpAgY6JIkRcBAlyQpAga6JEkRMNAlSYqAgS5JUgQMdEmSImCgS5IUAQNdkqQIGOiSJEXAQJckKQIGuiRJETDQJUmKgIEuSVIEDHRJkiJgoEuSFAEDXZKkCBjokiRFwECXJCkCBrokSREw0CVJioCBLklSBAx0SZIiYKBLkhQBA12SpAgY6JIkRcBAlyQpAga6JEkRMNAlSYqAgS5JUgQMdEmSImCgS5IUAQNdkqQIGOiSJEXAQJckKQIGuiRJETDQJUmKgIEuSVIE/h+0LYPL/63x5gAAAABJRU5ErkJggg==;" vertex="1" parent="1">
          <mxGeometry x="320" y="282" width="100" height="100" as="geometry" />
        </mxCell>
        <mxCell id="1VdBIYyeLSir0RV5_wH--19" value="User" style="text;html=1;align=center;verticalAlign=middle;whiteSpace=wrap;rounded=0;fontFamily=roboto;fontSource=https%3A%2F%2Ffonts.googleapis.com%2Fcss%3Ffamily%3Droboto;fontStyle=1;fontSize=17;" vertex="1" parent="1">
          <mxGeometry x="143.8" y="425" width="60" height="30" as="geometry" />
        </mxCell>
      </root>
    </mxGraphModel>
  </diagram>
</mxfile>
